<?xml version="1.0" encoding="UTF-8" standalone="no"?>
<!-- Created with Inkscape (http://www.inkscape.org/) -->
<svg id="svg3978" xmlns:rdf="http://www.w3.org/1999/02/22-rdf-syntax-ns#" xmlns="http://www.w3.org/2000/svg" xml:space="preserve" height="316" viewBox="0 0 375 374.96527" width="316" version="1.1" xmlns:cc="http://creativecommons.org/ns#" xmlns:dc="http://purl.org/dc/elements/1.1/"><defs id="defs3982"><clipPath id="clipPath3994" clipPathUnits="userSpaceOnUse"><path id="path3996" d="m0 702v-612h612v612h-612z"/></clipPath><clipPath id="clipPath4000" clipPathUnits="userSpaceOnUse"><path id="path4002" d="m0 0h612v792h-612v-792z"/></clipPath><clipPath id="clipPath4308" clipPathUnits="userSpaceOnUse"><path id="path4310" d="m0 702v-612h612v612h-612z"/></clipPath><clipPath id="clipPath4314" clipPathUnits="userSpaceOnUse"><path id="path4316" d="m611.39 702v-611.39h-611.33v611.39h611.33z"/></clipPath><clipPath id="clipPath4320" clipPathUnits="userSpaceOnUse"><path id="path4322" d="m0 0h612v792h-612v-792z"/></clipPath><clipPath id="clipPath4332" clipPathUnits="userSpaceOnUse"><path id="path4334" d="m0 702v-612h612v612h-612z"/></clipPath><clipPath id="clipPath4338" clipPathUnits="userSpaceOnUse"><path id="path4340" d="m0 0h612v792h-612v-792z"/></clipPath></defs><g id="g3986" transform="matrix(1.25 0 0 -1.25 -194.62 682.88)"><g id="g4364" fill="#275d38" transform="matrix(0 .49069 -.49069 0 500.16 246.31)"><g id="g3990"><g id="g3992" fill="#275d38" clip-path="url(#clipPath3994)"><g id="g3998" clip-path="url(#clipPath4000)" fill="#275d38"><path id="path4004" d="m306.6 360.61c-0.5978 0.1663-1.4327 0.2456-1.8378 0.6772 0.6308 0 1.24 0.0264 1.8633 0.0727l-38.636 38.146c0.5251-1.241 1.0096-2.5405 1.4138-3.8675l81.134-83.237c0.1454 1.1872-0.2191 2.6067-0.5185 3.6021-0.2645 0.8623-0.4637 1.5924-0.8557 2.448-0.3721 0.8292-1.1012 1.4932-1.3732 2.2686l-40.222 39.704c-0.3117 0.0595-0.6432 0.1134-0.9681 0.1851"/><path id="path4006" d="m270.23 349.27 33.84-34.748c0.3324 0.4175 0.5638 0.9482 0.7772 1.718 0.0784 0.238 0.1785 0.5968 0.3183 1.0218l-34.158 33.707c-0.2399-0.5639-0.3986-0.902-0.3986-0.902l-0.3787-0.7971"/><path id="path4008" d="m278.39 460.95c0.3315 0.0671 0.6432 0.1454 0.9558 0.2323l-16.546 16.352c-0.3513-0.4306-0.663-0.8755-0.9888-1.3127l15.159-15.531c0.4638 0.067 0.9483 0.153 1.4195 0.2597"/><path id="path4010" d="m282.67 430.57-29.986 29.594 0.033-1.9371 27.85-28.527c0.7225 0.3192 1.4327 0.5118 2.1033 0.8698"/><path id="path4012" d="m306.86 320.75c0.0992 0.0925 0.1918 0.1851 0.2853 0.2248 1.0813 0.4712 3.2573-0.5903 4.4776-1.0012l-38.582 38.091c-0.1265-0.7424-0.2795-1.4592-0.4382-2.1364l34.258-35.179"/><path id="path4014" d="m253.31 450.45-0.4921 0.4713 0.008-0.4505 0.4845-0.0208"/><path id="path4016" d="m326.66 318.66c-0.0803 1.2608-0.4108 2.5273-0.7763 3.2168-1.0153 1.8842-3.0714 3.1459-4.743 4.3454-0.5506 0.3985-2.3819 1.4865-1.8115 2.4149 0.358 0.5705 0.9624 0.5705 1.6056 0.3778l-50.438 49.789c-0.1001-0.8301-0.1926-1.5725-0.2918-2.1968l56.455-57.947"/><path id="path4018" d="m339.45 296.4 4.0611-4.1726c-0.0331 0.1398-0.0671 0.272-0.1266 0.4515-0.2257 0.8094-0.7159 1.6518-1.0153 2.5009-0.271 0.849-0.4835 1.7585-0.3976 2.753 0.0189 0.3854 0.0595 0.7499 0.086 1.1145l-1.837 1.8039c-0.007-0.1124-0.0264-0.238-0.0406-0.3646-0.1124-0.8491-0.0463-3.0184-0.73-4.0866"/><path id="path4020" d="m341.04 303.9 0.9275-0.935c0.306 0.4307 1.002 0.6828 1.9314 1.1872 0.4769 0.238 0.969 0.4911 1.4724 0.7423l-1.7907 1.7585c-0.3447-0.2257-0.7036-0.4448-1.0087-0.7357-0.73-0.6838-1.2004-1.3279-1.5319-2.0173"/><path id="path4022" d="m345.69 309.39c-0.2181-0.2919-0.2852-0.544-0.3513-0.783l1.5791-1.5989c-0.186 0.4448-0.2531 0.7962 0.2985 1.4403 0.5506 0.663 1.2731 1.2202 1.9436 1.8105l-1.1475 1.1276c-0.7291-0.6167-1.6584-1.0606-2.3224-1.9965"/><path id="path4024" d="m319.53 316.86c1.9427-1.1012 4.5381-2.686 6.0973-1.666 0 0 0.0265 0.0142 0.0454 0.0142l-53.158 52.488c0.2994-1.0417 0.544-2.1495 0.6961-3.297l46.32-47.54"/><path id="path4026" d="m268.05 344.77-0.7697-1.5725 30.922-31.776c0.6828 0.5299 1.512 0.9275 2.3403 1.2731l-32.493 32.075"/><path id="path4028" d="m328.46 327.19c1.5187-0.511 2.687-1.5064 4.1131-2.2232 1.2939-0.6498 2.6869-1.0937 3.4821-2.3678 0.9029-1.4261 1.4139-2.9523 2.7861-4.0734 1.718-1.3666 4.0876-3.5548 6.5347-4.5371l-74.606 73.656c0.0661-0.8887 0.0727-1.751 0.0727-2.6067l56.058-57.497c0.5299-0.0793 1.0484-0.1662 1.5593-0.3513"/><path id="path4030" d="m255.77 473.3 1.3402-1.3732c0.2191 0.5043 0.4316 1.0086 0.6111 1.4988l-1.5196 1.4998c-0.1124-0.5771-0.2324-1.1352-0.4317-1.6254"/><path id="path4032" d="m301.57 444.63c1.5914-0.1331 3.1309-0.6384 4.71-0.9236l-17.162 16.944c-0.816-0.2654-1.5526-0.6168-2.3224-0.9152l14.775-15.106"/><path id="path4034" d="m297.61 461.39c-1.0096-0.1917-2.0249-0.3702-3.0459-0.4902l16.241-16.618c0.1388 0.033 0.2975 0.067 0.4505 0.0925 1.3402 0.2059 2.8324-0.0727 4.1867-0.5893l-17.832 17.605"/><path id="path4036" d="m291.64 465.56c0.3986 0.1785 0.783 0.3711 1.1617 0.5704l-21.336 21.056c-0.2909-0.578-0.5903-1.1484-0.9218-1.6915l19.869-20.34c0.4175 0.085 0.816 0.2115 1.2268 0.4042"/><path id="path4038" d="m312.63 464.77c-0.3116-0.1719-0.6309-0.357-0.9425-0.5969-0.4373-0.358-0.902-0.7357-1.4129-1.1343l26.391-26.986c0.8084-0.007 1.6122-0.0463 2.4017-0.1464 1.1541-0.1389 2.2412-0.6158 3.383-0.868 0.1389-0.0472 0.2852-0.0935 0.4307-0.1464l-12.074 11.934c-0.033 0-0.0463-0.0264-0.0793-0.0264-0.8897-0.086-3.112 0.4505-3.7485 1.1144-0.6838 0.7036-0.663 1.99-0.4505 3.1309l-13.898 13.726"/><path id="path4040" d="m325.3 465.9 2.7993-2.8522c-0.0264 0.1067-0.0264 0.2059-0.0595 0.3192-0.5175 1.632-1.4931 2.2752-2.7398 2.533"/><path id="path4042" d="m266.16 480.88 17.607-18.024c0.6895 0.3183 1.3921 0.6498 2.1288 0.9747l-18.323 18.084c-0.305-0.2522-0.6299-0.5166-0.968-0.7301-0.153-0.0991-0.3051-0.2115-0.4449-0.305"/><path id="path4044" d="m317.36 466.69c-0.3844-0.2588-0.7763-0.4307-1.1541-0.5969l11.569-11.842c0.0728 0.1719 0.1398 0.357 0.1729 0.5639 0.2191 1.0672-0.2852 1.6584-0.5582 2.6198-0.1653 0.6234-0.0992 1.2203 0.0538 1.8181l-8.0598 7.9607c-0.6111 0.0727-1.2609-0.0264-2.024-0.5241"/><path id="path4046" d="m279.7 457.9 15.405-15.776c0.5308 0.1993 1.0616 0.3655 1.6046 0.4382 0.5185 0.0595 1.0153 0.0463 1.4942 0.0123l-16.254 16.036c-0.0803-0.0141-0.1464-0.0208-0.2059-0.0472-0.7301-0.2191-1.3799-0.4571-2.0438-0.663"/><path id="path4048" d="m332.34 436.2-25.143 24.819c-0.8292-0.3721-1.6716-0.6243-2.5207-0.5582-0.1728 0.7952 0.3976 1.4601 0.1587 2.1297-0.1058 0.0265-0.1861-0.0198-0.2125-0.1133-0.3306 0.2399-1.4195 0.033-2.4801-0.2191l24.545-25.116c1.8974-0.272 3.7627-0.7291 5.6525-0.9426"/><path id="path4050" d="m333.46 448.44 15.344-15.702c0.3117-0.0935 0.6101-0.2125 0.9284-0.3051 1.4129-0.3976 2.8994-0.5969 4.3586-0.3381 0.1917 0.0331 0.425 0.0992 0.6772 0.1719l-18.389 18.164c-0.8292-0.8821-1.7916-1.6197-2.8532-1.9767-0.0274 0-0.0397-0.007-0.0661-0.0142"/><path id="path4052" d="m249 498.44 2.6794-2.7332c0.2069 0.2654 0.4052 0.5307 0.6035 0.782 0.0803 0.0935 0.1464 0.1936 0.2333 0.306l-3.1053 3.0515-0.4109-1.4063"/><path id="path4054" d="m260.19 498.32-1.4535 1.4328c-0.3513-0.3646-0.7168-0.7291-1.0814-1.0871l1.5329-1.5527c0.3248 0.3977 0.6639 0.7953 1.002 1.207"/><path id="path4056" d="m244.86 484.49 1.2873-1.3269c0.3315 0.2456 0.6771 0.4911 0.9954 0.7225l-1.9106 1.8776-0.3721-1.2732"/><path id="path4058" d="m254.16 495.16c-0.3456-0.3249-0.7036-0.6309-1.0691-0.9095l1.8908-1.9437c0.3523 0.3324 0.6828 0.6904 1.0162 1.0285l-1.8379 1.8247"/><path id="path4060" d="m298.66 469.45-24.731 24.413c-0.1851-0.6772-0.3976-1.3733-0.6356-2.0901l22.992-23.531c0.7763 0.4448 1.5725 0.8368 2.3743 1.2079"/><path id="path4062" d="m250.45 487.85c0.305 0.3325 0.6101 0.6573 0.9095 0.9624l-4.0347 3.9865-0.3976-1.3336 3.5228-3.6153"/><path id="path4064" d="m302.54 471.84c0.4448 0.4316 1.0285 0.8556 1.632 1.2873l-28.135 27.784c-0.272-0.6771-0.51-1.3732-0.7291-2.0834l26.748-27.386c0.1662 0.1341 0.3315 0.2597 0.4845 0.3986"/><path id="path4066" d="m330.58 251.96c-0.3523 0.4042-1.1012 0.6837-1.9172 0.8292l2.6397-2.7068c-0.0925 0.7499-0.305 1.4129-0.7225 1.8776"/><path id="path4068" d="m278.38 277.17c0.357 0.5166 0.8491 0.9945 1.2873 1.4648l-27.678 27.333-0.6101-1.0087 27.001-27.789"/><path id="path4070" d="m282.47 291.16c0.2919 0.697 0.5969 1.393 0.8888 2.0438l-29.932 29.541 0.2786-1.9965 28.765-29.588"/><path id="path4072" d="m254.73 310.6 26.458-27.213c0.1653 0.8425 0.2512 1.6915 0.3041 2.5547l-26.582 26.237 0.1398-1.0408-0.3193-0.5374"/><path id="path4074" d="m344.71 269.1-27.703 27.339c-0.1927-0.0132-0.392-0.0472-0.5771-0.1133-0.8226-0.3315-1.3534-1.0219-2.0438-1.5263l28.194-28.957c0.8028 0.8094 1.4328 1.8313 1.8644 2.7001 0.0727 0.1521 0.1662 0.3514 0.2654 0.5573"/><path id="path4076" d="m327.35 231.57-16.599 16.373c-0.5979-0.2465-1.174-0.4647-1.7784-0.6299-0.4175-0.1134-0.8491-0.2191-1.2807-0.2994l18.423-18.939c0.2059 0.4836 0.3853 0.9813 0.5374 1.4781 0.2115 0.697 0.4637 1.3534 0.697 2.0173"/><path id="path4078" d="m310.27 293.98c-0.3447-0.033-0.6706-0.0859-0.9822-0.1586-0.7424-0.1984-1.3997-0.477-1.9957-0.8368l24.128-24.784c1.479-0.205 3.0505-0.6829 4.1253-1.293 1.5196-0.8821 2.8466-2.8059 4.6703-2.4876l-29.946 29.56"/><path id="path4080" d="m298.42 247.47c0.2786 0.1662 0.5771 0.3315 0.8887 0.4505 0.5582 0.2257 1.1287 0.3589 1.6453 0.5846l-50.053 49.41 0.086-1.6452 47.433-48.8"/><path id="path4082" d="m335.45 295.52c-0.3787-0.2786-1.3533-0.5903-1.5725-0.9945-0.3513-0.1266-0.6837-0.3051-1.0143-0.4845l17.68-18.13c-0.007 0.663-0.007 1.3269 0.0595 1.9899 0.1124 0.9086 0.5431 1.1145-0.4193 1.7576-0.4893 0.3523-1.1938 0.2994-1.6651 0.7565 0.5374 0.8491 0.5714 1.7841 0.4052 2.7465l-12.949 12.784c-0.1861-0.153-0.3579-0.3051-0.5176-0.4184"/><path id="path4084" d="m320.91 224.29c0.3598 0.1001 0.7707 0.1795 1.2684 0.2522 0.8226 0.1133 1.5186 0.4647 2.0966 0.935l-21.495 21.223c-1.0152-0.0529-2.056-0.3183-3.0647-0.5638l21.194-21.846"/><path id="path4086" d="m292.09 299.5c0.3645 0.272 0.73 0.5515 1.1277 0.8037 0.2861 0.1917 0.6308 0.3315 0.9217 0.4845l-32.054 31.657-0.6904-1.4062 30.695-31.539"/><path id="path4088" d="m252.5 267.44 53.556-55.161c1.2939 0 2.5887 0.0123 3.8751 0.0387l-57.51 56.781 0.0793-1.6585"/><path id="path4090" d="m242.78 477.51 1.088-1.1078h1.6056l-2.3357 2.3025-0.3579-1.1947"/><path id="path4092" d="m286.78 295.86c0.664 0.3504 1.3005 0.749 1.9314 1.1806l-29.614 29.243-0.6441-1.3014 28.327-29.122"/><path id="path4094" d="m295.95 306.02c0.2455 0.5373 0.3447 1.1021 0.4439 1.6584l-31.332 30.929-0.7159-1.48 30.994-31.863c0.2588 0.2125 0.4901 0.4637 0.6101 0.7556"/><path id="path4096" d="m296.65 285.69 21.812-22.424c0.1464 0.425 0.2522 0.8302 0.272 1.1277 0.239 0.6838 0.5506 1.4195 0.9558 2.0702l-20.984 20.717c-0.1124-0.0982-0.2323-0.1652-0.3579-0.2578-0.5506-0.424-1.1145-0.8424-1.6981-1.2334"/><path id="path4098" d="m327.29 268.07-23.06 22.768c-0.7622-0.5034-1.5262-0.9889-2.2893-1.4724l20.652-21.223c1.1815 0.0264 2.3753-0.0331 3.5559-0.0992 0.4117-0.0264 0.7763-0.007 1.1408 0.0265"/><path id="path4100" d="m323.22 253.44c0.0595 0.6308-2.8399-0.8491-2.9854-0.9152-0.0406-0.0132-0.0869-0.0397-0.1199-0.0463l9.8505-10.137c0.0208 0.0992 0.0671 0.186 0.0812 0.2852 0.2522 0.8292 0.6564 2.1562 0.9483 3.5691l-6.3618 6.2758c-0.9624-0.3117-1.9238-0.6366-2.9391-0.544 0.2918 0.5837 1.479 0.7631 1.5262 1.5121"/><path id="path4102" d="m342.03 257.29 0.9681-1.0087c0.0274 0.0595 0.034 0.1058 0.0803 0.1596 0.4117 0.783 1.0747 1.5385 1.513 2.3215 0.1785 0.2993 0.3116 0.5968 0.4306 0.8962l-0.9227 0.9275c-0.2248-0.5431-0.5034-1.0606-0.8623-1.5584-0.4306-0.5968-0.8689-1.1418-1.207-1.7377"/><path id="path4104" d="m285.62 278.83 24.287-24.964c0.272 0.2729 0.5572 0.544 0.7962 0.849 0.391 0.4581 0.7565 0.8821 1.1343 1.2741l-24.42 24.101c-0.5978-0.4316-1.1872-0.8556-1.7982-1.2598"/><path id="path4106" d="m340.52 249.73 2.6671-2.7474c-0.034 0.1134-0.0671 0.2191-0.1001 0.3325-0.6441 1.9162-0.7367 3.6682-0.5308 5.6846l-1.4072 1.394c-0.0123-0.0142-0.0123-0.0142-0.0123-0.0208-0.2928-1.5319-0.4845-3.0902-0.6167-4.6429"/><path id="path4108" d="m338.77 242.4 3.1847-3.2763c0.4637 0.8491 0.9152 1.6915 1.2278 2.6199 0.1586 0.4184 0.3116 0.7565 0.4306 1.0946l-3.6559 3.6087c-0.2257-0.7895-0.4836-1.5847-0.6432-2.3545-0.1256-0.6035-0.3249-1.1541-0.544-1.6924"/><path id="path4110" d="m328.79 239.25-12.121 11.96c-0.8556-0.5034-1.751-1.0408-2.6595-1.5848l14.044-14.456c0.1001 1.0285 0.1662 2.0561 0.425 3.0449 0.0717 0.3523 0.1917 0.697 0.3116 1.0351"/><path id="path4112" d="m325.27 293.01c-0.9747 0.663-0.8613 1.8105-1.598 2.5811-0.5969 0.6366-1.0682 0.5969-1.5782 0.4043l23.828-24.459c0.577 0.9757 1.3401 1.8181 2.3224 2.0164-0.425-1.0615-1.2807-1.6716-1.6783-2.686l2.2818-2.3356c-0.0265 0.2852-0.0473 0.5506-0.0926 0.7433-0.2729 1.4582 1.4459 1.8511 1.7113 3.2498l-20.433 20.168c-1.446-0.3778-3.5615-0.4836-4.7638 0.3183"/><path id="path4114" d="m344.86 263.49 1.1342-1.1673c0.2579 0.6111 0.5573 1.2268 1.0351 1.8388 0.4043 0.5563 0.8614 0.9813 1.4517 1.1995l-2.5604 2.5207c-0.119-0.5043-0.2324-1.0011-0.391-1.479-0.2994-0.9747-0.4845-1.9238-0.6696-2.9127"/><path id="path4116" d="m291.51 282.67c-0.1728-0.0784-0.3456-0.1719-0.5109-0.2579l23.783-24.472c0.4571 0.2446 0.8878 0.51 1.1673 0.8755 0.5639 0.7423-0.3381 1.3732 0.1861 2.0419l-22.968 22.668c-0.5364-0.2984-1.1002-0.5836-1.6575-0.8556"/><path id="path4118" d="m317.44 218.76c0.8018 0.9275 0.935 2.0221 1.2863 3.0846l-23.371 23.073c-0.1861-0.0859-0.3721-0.153-0.6035-0.1596 0.0463 0.1398 0.1521 0.2994 0.2984 0.4581l-43.638 43.094 0.0793-1.6584 65.949-67.891"/><path id="path4120" d="m279 276.54 24.971-25.686c0.8085 0.543 1.6708 0.9274 2.5869 1.2391l-25.05 24.732c-0.7905-0.2181-1.6264-0.3315-2.5085-0.2852"/><path id="path4122" d="m313.32 213.9c0.272 0.73 0.6092 1.3987 0.8085 1.7906 0.1926 0.3646 0.424 0.664 0.6837 0.9284l-62.909 62.074 0.0982-1.6499 61.319-63.143"/><path id="path4124" d="m330.56 223.49 1.6783-1.7312c0.3259 0.4779 0.8623 0.8623 1.3147 1.3402 0.4042 0.425 0.7093 0.8821 1.0342 1.3137l-1.5329 1.5262c-0.5836-0.6838-1.1928-1.3269-1.7906-1.8908-0.2192-0.2191-0.4515-0.3919-0.7037-0.5581"/><path id="path4126" d="m334.74 228.3 1.9238-1.9767c0.5034 0.3711 0.935 0.7291 1.326 1.2476 0.5449 0.7555 0.6309 1.2665 0.6706 1.937l-2.9458 2.9042c-0.007-0.0321-0.007-0.0652-0.0132-0.1048-0.119-1.6849-0.2125-2.6473-0.9614-4.0073"/><path id="path4128" d="m336.37 235.75 2.9183-2.9986c0.3787 1.1871 0.8755 2.3885 1.3269 3.5832 0.0331 0.0793 0.0661 0.1587 0.1124 0.238l-3.0638 3.0317c-0.4656-1.2203-0.9359-2.5406-1.2938-3.8543"/><path id="path4130" d="m321.46 214.63 1.513-1.5592c0.2522 0.0321 0.5166 0.0462 0.7754 0.0651 0.3854 0.7102 0.7575 1.4271 1.122 2.1562 0.0529 0.1133 0.1256 0.2134 0.1927 0.3126l-1.3477 1.326c-0.1332-0.1322-0.2456-0.2852-0.3712-0.4174-0.5912-0.7027-1.2344-1.3072-1.8842-1.8833"/><path id="path4132" d="m325.7 219.37 1.3411-1.3732c0.1587 0.2332 0.3381 0.4646 0.5166 0.6176 0.5176 0.4316 1.7114 0.7169 2.3753 1.0739 0.0397 0.034 0.0926 0.067 0.1332 0.0935l-2.6076 2.5603c-0.3457-0.9416-0.9945-1.9899-1.7586-2.9721"/><path id="path4134" d="m311.45 482.92c0.3126 0.0935 0.6829 0.1322 1.0691 0.1728l-28.885 28.539c-0.0463-0.0925-0.0992-0.186-0.1398-0.2795-0.3447-0.5837-0.6092-1.1995-0.8491-1.8172l27.154-27.77c0.5308 0.391 1.0408 0.9549 1.6509 1.1542"/><path id="path4136" d="m262.04 512.4c0.3522 0.4307 0.7234 0.8557 1.1021 1.2599l-12.313 12.146 0.0992-2.0296 11.111-11.377"/><path id="path4138" d="m336.27 510.34c-0.1992-0.0925-0.3976-0.1993-0.6035-0.3183l21.049-21.508c0.3655-0.119 0.6507-0.2522 0.7574-0.424 0.0916-0.1257 0.1124-0.2985 0.1322-0.4845l2.0958-2.1364c0.2587 0.7442 0.5506 1.513 0.3655 2.3489-0.1851 0.8755-0.7301 1.8832-1.0285 2.7464-0.1455 0.4779-0.1521 1.0153-0.2456 1.5319l-20.034 19.777c-0.8821-0.5979-1.7245-1.1617-2.4877-1.5329"/><path id="path4140" d="m271.74 520.67c0.4439 0.4514 0.8094 0.9888 1.1409 1.5592l-23.008 22.722 0.1011-2.0173 21.766-22.264"/><path id="path4142" d="m266.68 516.75c0.4713 0.3655 0.9359 0.7433 1.4129 1.0946l-17.739 17.52 0.0926-2.0164 16.233-16.599"/><path id="path4144" d="m318.62 481.85c0.7367-0.492 1.0351-0.9567 2.1429-0.3258 0.5506 0.3183 0.783 0.9482 1.0616 1.5121l-35.857 35.405c-0.1794-0.8944-0.3778-1.7378-0.6233-2.5802l33.276-34.011"/><path id="path4146" d="m321.83 488.29c0.0133 0.0142 0.0255 0.0142 0.052 0.0142-0.0718 0.0264-0.1587 0.0529-0.2314 0.0925 0.0727-0.0529 0.1058-0.0859 0.1256-0.1067-0.9954-0.0661-0.1256 1.5801 0.544 1.9833 0.2985 0.1738 0.6838 0.2598 1.0814 0.3126l-35.445 34.988c-0.272-0.8094-0.5638-1.6197-0.8094-2.4281l38.046-38.888c0.2125 0.007 0.4108 0.0199 0.5638 0.0529 0.5639 0.1521 1.8238 0.4977 2.0693 1.1145-1.6188 1.7916-3.9676 2.023-5.9377 2.8654h-0.0586"/><path id="path4148" d="m357.15 479.3c-0.0132-0.1058-0.0331-0.1719-0.0661-0.272l0.8169-0.8226c0.1115 0.2909 0.2437 0.5695 0.3901 0.8689 0.5043 1.1815 0.6365 2.4017 0.8037 3.6087l-2.057 2.0306c-0.0604-0.2928-0.0992-0.5582-0.0992-0.7631 0.0926-1.5659 0.4307-3.0525 0.2116-4.6505"/><path id="path4150" d="m263.73 503.92-0.2588 0.2587c-0.4307-0.3315-0.8755-0.6762-1.2731-1.0417l0.7952-0.8302c0.2994 0.545 0.545 1.0758 0.7367 1.6132"/><path id="path4152" d="m251.07 505.43 4.1074-4.2254c0.238 0.4505 0.4836 0.9019 0.7291 1.3524l-4.4049 4.3463-0.4316-1.4733"/><path id="path4154" d="m258.43 506.97c0.2786 0.4722 0.5506 0.9303 0.8292 1.3808l-7.9674 7.8681 0.0935-2.0315 7.0447-7.2174"/><path id="path4156" d="m293.59 545.72c0.3655 0.1861 0.7301 0.3712 1.0946 0.5506l-0.7291 0.7225c-0.1662-0.4306-0.2984-0.849-0.3655-1.2731"/><path id="path4158" d="m274.97 526.5c0 0.0274 0.0198 0.0415 0.0198 0.067 0.3183 0.6234 0.5572 1.2807 0.7622 1.9512l-26.35 26.011 0.1067-2.0173 25.461-26.012"/><path id="path4160" d="m331.33 523.55c0.3655 0.0859 0.7234 0.1672 1.0615 0.2654 1.7048 0.5175 1.8304 0.0529 3.5153-0.7433 0.3787-0.1851 0.7905-0.3381 1.2277-0.4836l-37.177 36.699c-0.2654-0.9558-0.5364-1.904-0.8424-2.8334l32.215-32.904"/><path id="path4162" d="m335.65 513.85c0.1728 0.1653 0.358 0.3721 0.5043 0.577l-3.0052 2.9854c-0.458-0.1464-0.9425-0.2323-1.5791-0.1464-1.2467 0.1663-2.2893 0.5837-3.3244 1.4592-1.6915 1.4205-3.0714 3.1648-4.676 4.4587 1.2665-0.0321 2.534-0.0661 3.7816-0.0396l-29.92 29.528c-0.4382-0.697-0.9284-1.4138-1.4271-2.1363l2.4225-2.4745c0.6895 0.3051 1.3931 0.6168 2.1033 0.8954-0.2456-0.5705-0.7962-1.1012-1.4138-1.6112l34.438-35.175c0.7622 0.5969 1.5054 1.1484 2.0957 1.6792"/><path id="path4164" d="m344.08 521.73c0.9615 0.0859 1.9361 0.1851 2.8853 0.2512l-45.621 45.058c0.238-1.2004 0.1058-2.3885-0.1728-3.5625l40.932-41.788c0.6894-0.0331 1.3657-0.006 1.9767 0.0406"/><path id="path4166" d="m292 436.2c0.63 0.2323 1.2137 0.5771 1.4129 0.9955 0.1653 0.3711 0.1521 0.6903 0.0331 0.9425l-0.7235 0.7225c-0.5109 0.2985-1.1541 0.4845-1.6187 0.5648-0.3986 0.0727-0.2456 0.6365-0.0331 1.0615l-17.958 17.739c-1.1616 0.2654-2.5141 0.5771-3.4302 1.4592 0.4845 0.2002 1.0219 0.305 1.5659 0.3777l-11.874 11.73c-0.1936-0.5515-0.3919-1.0823-0.578-1.5923l33.204-34"/><path id="path4168" d="m290.2 532.48c-0.2843-0.8424-0.5573-1.6849-0.7943-2.5207l38.423-39.274c1.5461 0.0132 3.0846 0.0132 4.6439 0.0132h0.0528l-42.325 41.781"/><path id="path4170" d="m344.81 491.56c0.5639 0.0793 1.1485 0.1123 1.752 0.0661 1.5659-0.1398 3.0902-0.5639 4.5834-1.0946l-18.276 18.031c-0.8094-0.3391-1.6386-0.5572-2.3554-0.4779 0.0462 0.7225 0.3645 1.3864 0.8226 1.989l-34.935 34.503c-0.4836-0.7291-0.8878-1.4781-1.293-2.2355l49.701-50.782"/><path id="path4172" d="m337.11 490.3c0.849-0.067 1.6915-0.0859 2.5339 0.0142 0.7046 0.0916 1.3799 0.2644 2.0306 0.4505l-48.76 48.136c-0.4382-0.6961-0.8821-1.3931-1.3137-2.1033l45.509-46.497"/><path id="path4174" d="m290.36 550.54-25.567 25.255c-0.663-0.1596-1.3203-0.3117-1.9833-0.4647l26.065-26.635c0.5109 0.5969 1.0417 1.2136 1.4856 1.8445"/><path id="path4176" d="m281.49 541.07-31.2 30.815c-0.4845-0.1662-0.9747-0.3315-1.4526-0.4779l31.253-31.949c0.4515 0.5497 0.9218 1.0871 1.3997 1.6113"/><path id="path4178" d="m233.48 241.57 21.581-22.258c0.7489-0.2116 1.4998-0.4241 2.2421-0.6101l-23.823 23.525v-0.6573"/><path id="path4180" d="m233.52 232.46 8.6643-8.9505c0.5308-0.1851 1.0616-0.3712 1.5923-0.5572l-10.257 10.124v-0.6158"/><path id="path4182" d="m286.08 545.65-28.672 28.308c-0.5704-0.1596-1.1484-0.3126-1.7123-0.4656l28.772-29.407c0.5308 0.5033 1.0814 1.0275 1.6122 1.5649"/><path id="path4184" d="m306.05 480.39-25.76 25.421c-0.5365-0.3712-1.1277-0.663-1.7841-1.14l-0.006-0.0207 28.426-29.056c0.3712 0.5771 0.5969 1.1938 0.5431 1.9097-0.0652 0.8358-1.6377 2.1363-1.5054 2.754 0.007 0.0463 0.0538 0.0925 0.0859 0.1322"/><path id="path4186" d="m350.42 509.47-5.1482 5.0689c-0.1332 0.0255-0.2786 0.0595-0.4042 0.0595-1.1551 0.0255-2.3951-0.4779-3.6229-1.1617l14.721-15.025c0.153 0.3778 0.2919 0.7754 0.2522 1.241-0.0463 0.749-0.8424 1.6575-1.241 2.4074-0.6564 1.2269-0.6498 2.2818-0.4571 3.3632l-1.3005 1.2807c0.0727-1.3336-0.0198-2.6265-0.6961-2.6672-2.5415-0.1662-2.1769 3.231-2.1032 5.4334"/><path id="path4188" d="m250.14 260.77 46.869-48.296c1.2269-0.0661 2.4414-0.1124 3.6749-0.1388l-50.113 49.462-0.4307-1.0275"/><path id="path4190" d="m247.45 254.45 40.061-41.297c1.1352-0.1133 2.2695-0.2059 3.417-0.2994l-43.08 42.525-0.3985-0.9284"/><path id="path4192" d="m244.75 248.13 32.705-33.72c1.0285-0.1464 2.057-0.2985 3.0912-0.4307l-35.431 34.98-0.3655-0.8292"/><path id="path4194" d="m239.02 244.95 27.677-28.538c0.9095-0.1993 1.8171-0.3854 2.7408-0.5714l-29.529 29.143-0.8887-0.033"/><path id="path4196" d="m345.42 565.04c-0.2446 1.4724-0.968 2.9184-1.6839 4.2982-0.8302 1.632-1.9645 2.1892-3.9346 2.7134-0.9293 0.2521-1.7047 0.5638-2.4687 1.1815-2.0221 1.6112-3.4558 3.1308-4.3048 5.1151-0.6696 0.0982-1.36 0.1917-2.0495 0.2786l14.727-15.013c-0.0992 0.477-0.1984 0.9605-0.2853 1.4261"/><path id="path4198" d="m345.53 555.22c-0.007 0.6828-0.5969 1.6915-0.7896 2.4348-0.1794 0.7499 0.0132 1.479 0.3712 2.3488 0.0264 0.0661 0.0604 0.1181 0.0803 0.1709l-19.319 19.08c-1.631 0.1795-3.2706 0.3391-4.9148 0.4713l24.512-25.003c0.033 0.1586 0.0651 0.3249 0.0595 0.4977"/><path id="path4200" d="m345.62 550.21c-0.0198 0.2786-0.1785 0.4439-0.2521 0.6838l-29.568 29.188c-1.4261 0.0803-2.8654 0.1332-4.3114 0.1795l32.984-33.641c0.3986 1.2145 1.2269 2.4357 1.1475 3.5898"/><path id="path4202" d="m353.05 510.5 2.1297-2.1618c0.2786 1.665 0.1926 3.5549 0.2786 5.2605l-1.6575 1.6452c0.0321-0.1652 0.0652-0.3381 0.0982-0.577 0.2191-1.4393-0.5572-2.7861-0.849-4.1669"/><path id="path4204" d="m297.79 561.43-17.407 17.182c-0.8755-0.1123-1.7444-0.2323-2.6067-0.3645l18.177-18.562c0.6158 0.5714 1.2476 1.1352 1.8369 1.7444"/><path id="path4206" d="m301.29 567.08-12.645 12.486c-0.9888-0.0859-1.9767-0.186-2.9523-0.2852l13.78-14.078c0.3919 1.0748 0.9085 1.9437 1.818 1.8776"/><path id="path4208" d="m293.58 556.48-21.156 20.878c-0.7565-0.1332-1.5055-0.2787-2.262-0.4317l22.257-22.735c0.3787 0.7621 0.7489 1.5394 1.1607 2.2884"/><path id="path4210" d="m351.26 530.84c-0.3919 0.8689-0.9293 1.8502-1.394 2.7266-0.5374 0.9813-1.5253 1.3336-2.2412 2.142-0.5647 0.6309-0.8632 1.9248-0.8632 2.6341-0.007 0.5638 0.1927 1.2145 0.1927 1.8766l-40.654 40.124c-0.204 0-0.4043 0.0188-0.6026 0.0188-1.0691 0-2.1231-0.0255-3.1856-0.0387l48.993-50.014c-0.0803 0.1861-0.1795 0.358-0.2456 0.5308"/><path id="path4212" d="m352.3 521.13c0.5846-0.2314 1.1484-0.4646 1.7245-0.6035 0.0671-0.6564 0.0406-1.2674-0.0387-1.8643l1.5517-1.5782c0.5119 0.9813 1.0616 1.5924 0.9756 2.7795-0.0802 1.1683-0.7961 1.9305-1.3335 2.992-0.0331 0.086-0.0595 0.153-0.0926 0.2182l-57.822 57.086c-1.1154-0.0538-2.2289-0.119-3.3433-0.1861l57.184-58.359c0.3986-0.152 0.8094-0.3182 1.1938-0.4845"/><path id="path4214" d="m249.03 562.1 27.974-28.592c0.2003 0.7489 0.4317 1.479 0.7169 2.1751l-28.791 28.427 0.1001-2.0098"/><path id="path4216" d="m278.04 416.28c-0.5704 0.1464-1.274 0-1.9228-0.2257l3.6814-3.7617c0.1728 0.4647 0.3844 0.9425 0.3315 1.241-0.1322 1.0275-1.0077 2.4678-2.0901 2.7464"/><path id="path4218" d="m268.67 414.58 50.625-51.905c0.8944-0.1455 1.7633-0.511 2.5736-0.7764 1.0616-0.3645 2.0155-0.3645 3.0317-0.3645l-54.154 53.463c-0.4042-0.0463-0.816-0.0926-1.2136-0.1719-0.273-0.0538-0.578-0.153-0.8633-0.2456"/><path id="path4220" d="m342.11 366.64 2.2496-2.3026c0.0728 0.3192 0.1653 0.5978 0.2975 0.7829 0.4118 0.5308 1.1815 0.8094 1.6594 1.4328 0.1729 0.2399 0.3315 0.4712 0.477 0.7036l-2.2554 2.2223c-0.0396-0.0463-0.0991-0.1058-0.1454-0.1597-0.3712-0.3381-0.9152-0.6233-1.2873-0.9812-0.4703-0.4647-0.7225-1.1013-0.9954-1.6981"/><path id="path4222" d="m310.66 417.1c-0.0454 0.5582-0.0321 1.122 0.033 1.6991 0.0539 0.6044 0.2465 1.4535 0.1464 2.1703l-1.3666 1.3458c-0.8226 0.12-1.8842-0.0793-2.5472-0.0462-0.5043 0.0321-1.002 0.0991-1.5054 0.1728l5.2398-5.3418"/><path id="path4224" d="m359.95 381.61-0.6564 0.6365c-0.849-1.0747-1.8775-1.9569-2.8597-2.8994l0.7508-0.782c0.0661 0.0387 0.1322 0.0992 0.1983 0.1511 1.4271 0.9954 2.176 1.3874 2.567 2.8938"/><path id="path4226" d="m285.8 415.22 56.136-57.53c0.1993 0.3646 0.5979 0.6299 0.0803 1.0616 0.4977 0.5043 1.3402 1.0407 1.7576 1.632 0.12 0.153 0.1861 0.3258 0.2257 0.5241l-3.9402 3.894c-0.4977-0.1653-1.0086-0.239-1.4667-0.1455-0.0586 0.3778 0.1454 0.8623 0.1596 1.2797 0.0132 0.0595-0.0142 0.1068-0.0142 0.1597l-51.465 50.816c-0.459-0.5705-0.9558-1.1277-1.4734-1.6915"/><path id="path4228" d="m339.07 390.99c0.1851 0.2182 0.3976 0.4108 0.6158 0.5771 0.1794 0.1331 0.3787 0.2653 0.5714 0.3645l-25.734 25.402c-0.8085-0.63-1.6906-1.2939-2.3678-1.7652l25.773-26.403c0.4316 0.5374 0.6639 1.2873 1.1418 1.8247"/><path id="path4230" d="m296.05 423.2c-0.0406-0.033-0.0935-0.0859-0.1332-0.119l26.854-27.505c0.3843-0.1058 0.7753-0.2248 1.0615-0.3041 0.664-0.1993 1.0682-0.6507 1.6386-0.9624 1.4261-0.8491 2.8985-1.088 4.4446-1.446 0.0595-0.007 0.1331-0.0141 0.1983-0.033l-31.975 31.576c-0.7697-0.3305-1.6056-0.8613-2.0891-1.207"/><path id="path4232" d="m319.29 421.75c-0.7565-0.749-1.4667-1.5196-2.1373-2.1958l25.86-26.483c1.2598 0.4911 2.6066 1.088 3.9534 1.3468l-27.676 27.332"/><path id="path4234" d="m317.21 392.15 1.0946-1.122c0.12 0.0472 0.2257 0.0935 0.3117 0.1729-0.0123 0.0604-0.171 0.4514-0.1983 0.4986 0 0-0.5903 0.2182-1.208 0.4505"/><path id="path4236" d="m352.3 374.45 0.63-0.6432c0.1652 0.0265 0.3248 0.0671 0.5175 0.0671 0.2654 0.9085 1.0682 2.0692 1.99 3.0713l-0.6102 0.6035c-0.7763-1.0748-1.5063-2.2289-2.5273-3.0987"/><path id="path4238" d="m310.7 398.82c0.2389-0.086 0.5043-0.1984 0.7357-0.3382 1.2146-0.7225 2.1637-1.785 3.3707-2.5603 1.174-0.7367 2.4546-1.3005 3.6484-2.0438 1.0285-0.663 2.0032-1.4592 3.1639-1.8899 0.0671-0.0207 0.1266-0.0472 0.187-0.0604l-28.845 28.473c-0.6035-0.5374-1.2344-1.0351-1.9569-1.4063l19.696-20.174"/><path id="path4240" d="m342.92 424.71c-0.5582-1.0143-1.3676-1.3732-2.1628-1.9701l17.102-17.506c-0.186 0.6365-0.3853 1.2797-0.5175 1.9238-0.2258 0.9624-0.5044 1.8436-0.7764 2.7464-0.272 0.8755-0.8556 2.3281-0.8018 3.078 0 0.0123 0.007 0.0463 0.007 0.0727l-1.9503 1.9437c0.1323-0.7896 0.324-1.5725 0.2711-2.4084-2.2223-1.0615-3.2168 3.3764-3.6286 5.713l-7.1919 7.0975c-0.1124-0.2125-0.2248-0.4439-0.3504-0.6904"/><path id="path4242" d="m277.07 424.18c0.0859 0.1662 0.1728 0.3334 0.2323 0.511 0.2191 0.5373 0.3183 1.0218 0.5308 1.5394l-19.968 19.71 0.0199-2.1033 19.185-19.657"/><path id="path4244" d="m254.96 465.04c-0.1398 0.4241-0.0529 1.0682 0.1596 1.8502l-2.5614 2.5207 0.0274-1.9437 2.3744-2.4272"/><path id="path4246" d="m283.76 435.54c0.9086 0.2106 2.0551 0.2776 2.7861 0.3116l-30.211 29.819c-0.2729-0.3646-0.5846-0.7301-0.8962-1.1343l28.321-28.996"/><path id="path4248" d="m339.92 380.39c-1.1815 1.054-1.9579 0.7235-3.0723 0.7499l4.0469-4.1395c0.0208 0.0255 0.0208 0.0595 0.0265 0.0727 0.2984 1.5187 0.1719 2.2487-1.0011 3.3169"/><path id="path4250" d="m355.09 473.32c-0.3655-0.3844-0.8103 0.1729-1.1673-0.1926l1.7774-1.8181c0.2258 0.7565 0.5044 1.4875 0.5705 2.1769 0.0935 0.9681 0.1785 1.5584 0.5175 2.3545l-0.9756 0.969c-0.2587-0.3919-0.4703-0.7895-0.5638-1.2674-0.1058-0.6167 0.3589-1.7189-0.1587-2.2223"/><path id="path4252" d="m326.93 385.53c-1.0616 0.7631-2.2025 0.8755-3.2905 1.4459-0.969 0.5176-2.1637 1.3732-2.958 2.1694-0.1133-0.0793-0.2587-0.1124-0.4183-0.1322l18.933-19.378c0.3381 0.2984 0.6696 0.4901 0.6696 1.1673 0 1.0143 0.1398 1.9833 0.3325 2.9722l-9.1224 8.9958c-0.1662-0.0604-0.3712-0.0737-0.6432-0.007-1.121 0.2446-2.5282 2.0759-3.5029 2.7663"/><path id="path4254" d="m328.68 419.32c-0.5374 0.8954-0.5572 1.7718-0.3306 2.5935l-3.5567 3.5227c-0.7292-0.4117-1.48-0.8424-2.2488-1.206-0.2389-0.1143-0.4637-0.2333-0.6904-0.3665l31.101-31.836c1.7708-0.5573 3.8939 0.425 5.0547-1.5187 0.696-1.1418 1.6254-1.8379 2.4215-2.8862 0.8028-1.0606 0.5506-2.2355 0.0671-3.3301l0.3305-0.3514c0.3523 0.6772 0.664 1.36 0.8425 2.0769 0.187 0.8292-0.1785 1.6716-0.6234 2.567-0.2521 0.5034-0.3721 0.9954-0.4505 1.4922l-29.071 28.705c-1.0937-0.3777-2.142-0.6365-2.8456 0.5374"/><path id="path4256" d="m354.19 418.11 2.2628-2.3083c0.4572 1.2807 1.0153 2.5737 1.3062 3.7684 0.0208 0.186 0.0737 0.3579 0.1133 0.5308l-2.5745 2.5471c-0.0463-0.272-0.086-0.5364-0.1256-0.7688-0.1917-0.8301-0.1124-1.6593-0.3315-2.4489-0.153-0.4902-0.4184-0.8887-0.6507-1.3203"/><path id="path4258" d="m345.47 339.61c-0.0133 0.5109 0 1.0606 0 1.6254l-8.4528 8.3385c-2.0957 0.5308-4.1187 1.2211-4.709 1.3609-0.7027 0.1587-1.3742 0.324-2.0636 0.4968l16.671-17.082c-0.1454 0.9284-0.2191 1.8445-0.5175 2.7531-0.3117 0.9888-0.9086 1.4129-0.9284 2.5075"/><path id="path4260" d="m338.56 420.55c-0.6299-0.2654-1.7916 0.0387-2.5075-0.0604-0.0396-0.5374-0.4712-0.8293-1.0351-0.9945l25.369-25.946c-0.0528 0.2531-0.1331 0.5043-0.2247 0.7754-0.6715 1.9436-0.969 3.9676-1.122 6.0378-0.0123 0.1388-0.0331 0.2852-0.0463 0.4174l-20.161 19.902c-0.0869-0.0406-0.1719-0.0935-0.272-0.1322"/><path id="path4262" d="m281.14 410.91 48.476-49.702c0.5308-0.0529 1.0739-0.119 1.5924-0.1795 0.696-0.0925 1.2599-0.305 1.8964-0.5308 1.4535-0.5033 2.5085-1.6452 3.6427-2.6132 1.2807-1.088 2.2554-2.5009 3.1715-3.8949 0.6828-1.0672 2.958-2.8522 2.7266-4.2113-0.0671-0.3787-0.3391-0.612-0.7905-0.731-0.0992-0.0331-0.205-0.0397-0.3117-0.0519l3.503-3.6022c-0.0199 0.1719-0.0463 0.357-0.086 0.5299-0.2191 1.002-1.2608 1.8974-0.8028 2.8258 0.4043 0.8292 1.1542 0.9095 1.2599 1.6527l-62.637 61.835c-0.4977-0.5109-1.0616-1.0408-1.6396-1.326"/><path id="path4264" d="m344.66 446.67c-0.6157 0.5374 0.0539 2.3224 0.0935 2.9844 0.0397 0.6706-0.0935 1.3147-0.305 1.9182l-3.8212 3.7815c-0.8897-0.6771-1.7048-1.6981-2.0703-2.1958-0.1057-0.153-0.2257-0.3117-0.3305-0.4647l19.47-19.909c0.2984-0.0793 0.5638-0.2181 0.7102-0.4901 0.0869-0.153 0.1455-0.2852 0.1861-0.425l1.7708-1.8049c0.0661 0.1398 0.0463 0.3514 0.1851 0.4383 0.2069 0.1586 0.7442 1.3741-1.4261 3.297-0.7489 0.6564-1.8568 2.9127-2.7852 3.4699-0.8556 0.5166-1.3146 0.7952-1.8983 1.4393-0.7555 0.8293-1.6377 1.6651-2.4537 2.3413-0.6375 0.5308-1.1078 1.6585-1.5394 2.296-0.7291 1.0681-1.7784 1.2995-2.1099 2.6529-0.1785 0.7235 0.1067 0.5638 0.272 1.4866l-1.4129 1.3666c-0.1067-0.4911-0.2729-0.9227-0.4911-1.2665-0.3787-0.5846-1.3666-1.5272-2.0438-0.9161"/><path id="path4266" d="m347.45 453.58c0.0264-0.358 0.0397-0.7962 0.0586-1.2741l1.9975-2.0419c0.1728 0.3835 0.3579 0.7745 0.5109 1.1607 0.3589 0.8349 0.7556 1.7038 1.1806 2.5925l-3.1309 3.0922c-0.458-1.0616-0.7102-2.2025-0.6167-3.5294"/><path id="path4268" d="m352.84 467.05c0.119-0.5638 0.0652-1.2136-0.0671-1.87l2.2554-2.3026c0.0208 0.0662 0.0406 0.1266 0.0604 0.1729 0.2588 0.8821 0.6838 1.5583 1.0672 2.3819 0.153 0.3239 0.3655 0.8679 0.4118 1.2202 0.007 0.1058 0.0132 0.1993 0.0199 0.2777l-3.9138 3.8684c-0.1455-0.663-0.2456-1.2863-0.2654-1.4601-0.086-0.8953 0.2588-1.4592 0.4316-2.2884"/><path id="path4270" d="m349.47 459.44 2.8711-2.9316c0.0737 0.1984 0.1663 0.3977 0.2588 0.5969 0.4373 1.0285 0.9624 2.1222 1.4469 3.231l-2.2695 2.2421c-0.3381-0.6167-0.7168-1.1881-1.088-1.6188-0.4373-0.5034-0.8415-1.0153-1.2193-1.5196"/><path id="path4272" d="m325.96 356.53c-0.3787 0.3391-0.8349 0.5374-1.326 0.6772l2.8522-2.9249c0.007 0.0727 0.0331 0.1388 0.0397 0.2049 0.067 0.8963-0.9945 1.5461-1.5659 2.0428"/><path id="path4274" d="m310.92 362.15c0.085 0.0189 0.1983 0.0331 0.272 0.0331 0.5232 0 1.1078-0.273 1.6509-0.306 0.5053-0.0132 1.0691 0.033 1.5725 0.0604 0.2588 0.0132 0.5043 0.0661 0.7565 0.1058l-57.045 56.302 0.0132-2.0759 52.78-54.12"/><path id="path4276" d="m267.52 415.76c0.3702 0.3315 0.7952 0.6431 1.0474 0.9491 0.0538 0.0926 0.1322 0.1597 0.1993 0.238l-10.721 10.601 0.0142-2.09 9.4605-9.6985"/><path id="path4278" d="m272.25 420c0.392 0.2182 0.7764 0.4241 1.2014 0.5827 0.1917 0.0737 0.391 0.1729 0.5704 0.273l-16.068 15.887 0.0274-2.1023 14.269-14.641"/><path id="path4280" d="m358.14 425.93c0.1199 0.7168 0.5185 1.3864 0.9624 2.057l-1.3657 1.3656c-0.6904-0.8877-1.5196-1.7434-1.7453-2.5405-0.1067-0.3787-0.1795-0.7622-0.239-1.1607l2.5075-2.5737c-0.0595 0.9417-0.2521 1.9428-0.1199 2.8523"/><path id="path4282" d="m315.14 359.52c-0.7432 0.2644-1.36 0.4306-2.1155 0.4901l35.1-36.015c-0.0142 0.4448-0.0274 0.7962-0.4118 1.2004-0.3523 0.3721-0.9945 0.2531-1.1938 0.7631-0.2663 0.697 0.9936 1.699 1.2467 2.3158 0.1719 0.3777 0.2257 0.849 0.2455 1.3392l-28.924 28.553c-1.326 0.3985-2.6596 0.8887-3.9469 1.3534"/><path id="path4284" d="m327.73 426.96 1.8577-1.8908c0.1851 0.9019 0.2314 1.8246 0.4505 2.8125-0.7291 0.0331-1.5451-0.4712-2.3082-0.9217"/><path id="path4286" d="m346.22 371.56 2.024-2.0768c0.3645 0.5043 0.7753 1.0086 1.3071 1.4922 0.4703 0.4524 0.8556 0.9624 1.2599 1.4469l-0.8293 0.8084c-0.2984-0.2115-0.5638-0.4439-0.9151-0.6092-0.6564-0.3192-1.3666-0.1662-1.9909-0.425-0.3183-0.1265-0.5969-0.3579-0.8557-0.6365"/><path id="path4288" d="m253.52 363.54c0.9284-0.1134 1.8445-0.0803 2.7729-0.0803 0.4515 0 0.9624 0.1266 1.394 0.2191 0.357 0.0793 0.8614 0.0132 1.0739 0.4118 0.1199 0.1785 0.186 1.0351 0.186 1.24 0 0.425 0.119 1.0153-0.1256 1.3336-0.2191 0.2786-0.8292 0.4174-1.1343 0.4571-0.6375 0.0605-1.3014 0.12-1.9503 0.1662-0.9954 0.0671-2.1967 0.1266-3.1912 0-2.2431-0.272-4.5645-0.272-6.8142-0.5638-1.0209-0.1256-1.989 0.2918-3.0572 0.2918-1.0946 0-2.0966 0.1256-3.1846 0.1256-1.055 0-2.1562 0.1002-3.1979 0-0.5639-0.033-1.0946-0.0859-1.6783-0.1256-0.7301-0.0727-1.207-0.2059-1.9238-0.0727-0.4647 0.0793-1.5716 0.3315-1.8445-0.1927-0.119 0.0926-0.2853 0.0595-0.358 0.0926-0.1058-0.1983-0.3976-3.1705-0.3183-3.1705h14.548c2.4215 0 5.0084 0.2663 7.4091-0.0331 0.4316-0.0462 0.9426-0.0462 1.394-0.0991"/><path id="path4290" d="m235.6 402.03c0.2248 0 0-6.9257 0-7.5027 0-0.7773 0.0397-1.4733 0.1322-2.2223 0.0926-0.7433 0.2787-1.6395 0.2994-2.3762 0-0.1048-0.153-0.2786-0.1596-0.4108-0.0208-0.0794 0.1256-0.2654 0.1256-0.3778 0-0.2852-0.1331-0.783-0.1256-1.1475 0.0265-0.7631 0.2588-1.5329 0.1389-2.3555-0.1049-0.7763-0.0794-1.4591 0.0207-2.209 0.085-0.8085-0.1596-1.5857-0.153-2.381 0-0.7244 0.119-1.4601 0.1256-2.1967 0.0274-1.479 0.0605-2.9713 0.086-4.437 0-0.2333 0.0406-4.2463 0.067-4.2463l11.57-0.1001c-0.1795 0.007-0.1067 8.1402-0.0265 8.7314 0.0388 0.5034-0.1133 0.9681-0.1586 1.4063-0.1332 1.0077 0.0321 2.1023 0.1586 3.0713 0.12 0.9879-0.186 2.1222-0.305 3.0449-0.12 1.0606-0.0265 2.1628-0.12 3.197-0.2115 2.176-0.0859 4.266-0.1322 6.3957-0.0396 1.1211-0.1454 2.2818-0.1454 3.4425v1.5593c0 0.4307-0.1729 0.8094-0.1729 1.2004v0.1728c-0.1463-0.0736-0.305-0.2191-0.425-0.3711-0.4712-0.0595-0.816 0.3711-1.3533 0.391-0.4184 0.007-1.1542 0.1199-1.4857-0.12-0.1322 0.1001-1.3203 0.0935-1.5592 0.0935-0.5761 0-1.1277-0.2257-1.6915-0.2389-0.7291-0.0199-1.48 0.0132-2.2025 0l-2.5075-0.0132"/><path id="path4292" d="m242.54 317.17c0.034 0.3919-0.0133 0.8301-0.0199 1.2145-0.0141 1.3591-0.0207 2.72-0.0396 4.0602-0.0133 1.6121 0.1124 3.2366-0.086 4.8299-0.0604 0.4901 0 1.0275 0 1.5243v3.6229c0 1.0682 0.1455 1.9965 0.1455 3.0581-0.007 2.992-0.2446 6.0038-0.2777 9.0223h-7.769c-0.0406-1.36-0.0406-2.7002-0.0472-4.0592-0.0132-0.5847 0.1596-0.8491 0.2663-1.3865 0.0926-0.4382-0.0406-0.9237-0.1001-1.3675-0.0727-0.6838-0.119-1.3931-0.119-2.0825 0-0.6772 0.0519-1.3997 0-2.0835-0.0661-0.6309 0.0132-1.241-0.1464-1.8568-0.1322-0.5185-0.2455-0.9095-0.1454-1.4733 0.1057-0.5176 0.1397-0.9888 0.1397-1.5262v-1.7784c0-2.1543-0.0736-4.2916-0.1001-6.4808-0.007-0.73-0.0132-1.479-0.0264-2.2157 0-0.425 0.1058-1.088-0.1322-1.4336 0.1652-0.0321 0.2918 0.0812 0.4306 0.067 0.119-0.0189 0.272-0.1199 0.3778-0.1199 0.4042 0 0.7367 0.101 1.1145 0.153 0.7829 0.0661 1.4601-0.2191 2.2222-0.12 0.7631 0.0935 1.5461 0.1011 2.3432 0.12 0.7414 0 1.8237-0.6904 1.9692 0.3117"/><path id="path4294" d="m137.5 325.6 0.1001 3.8014 15.012 0.0992-0.0925-3.9006h-15.02zm-1.8445 14.734-0.6555 4.5371 17.52-0.0925v-4.4446h-16.864zm-2.958 15.935-0.4704 4.3586h20.558v-4.4512l-20.087 0.0926zm-2.9722 18.25v5.2747l23.351-0.272v-5.0027h-23.351zm26.119-71.142c0.0255 0.2191 0.1521 0.5308 0.1521 0.6838 0 0.4977-0.1521 1.0087-0.1521 1.5385 0 1.0549-0.1001 2.1571 0 3.1979 0.1001 1.0143 0 1.9899-0.1332 3.0581-0.1265 1.1352-0.3645 1.9966-0.0793 3.1573 0.2852 1.1938 0.1256 2.5481 0.1256 3.7825v28.903c0 1.0417 0.0529 2.0844-0.1058 3.0987-0.152 0.9284-0.1388 1.9371 0.0595 2.873 0.2059 0.9152 0.2258 1.718 0.1332 2.6464-0.1662 1.665-0.4307 3.2045-0.2456 4.862 0.2324 1.9578-0.0264 3.8618-0.0264 5.8451v2.6275c0 2.2884 0.1388 4.5569 0.1719 6.8387 2.3885 0.0671 4.7638 0.2588 7.1523 0.2522h2.686c0.3985 0 4.8563-0.4902 4.8563-0.272 0 1.1087-0.0198 2.2222 0 3.3244-0.4977 0-0.8623 0.0661-1.3931-0.007-0.3985-0.0529-0.8556 0.007-1.241 0.007h-2.3743c-0.7962 0-1.5791-0.1454-2.3554-0.2389-0.9284-0.12-1.8115 0.1322-2.7125 0.2323-0.9831 0.1124-2.0438 0.007-3.026 0.007h-1.6055c-0.0331 1.3865-0.0331 2.7786-0.0529 4.1527-0.0265 2.3149-0.0463 4.6174-0.0794 6.9323-0.0141 0.7971-0.0528 1.6121-0.033 2.3951 0.0189 0.6904 0.3249 1.2872 0.3976 1.9502 0.0331 0.3712-0.2654 0.7565-0.391 1.0947-0.3721 1.0152 0.0793 2.0825-0.1662 3.0713-0.2588 0.9822-0.1332 2.176-0.2588 3.1979-0.1322 1.1276 0.2191 2.2289 0.2928 3.3358 0.0123 0.3333-0.1398 0.5515-0.1672 0.8566-0.006 0.424 0.1728 0.7829 0.1332 1.2211-0.0737 0.6234-0.1389 1.2873-0.2257 1.9173-0.1785 1.4657-0.007 3.0184-0.1653 4.471-0.1464 1.3203 0.1586 2.6472 0.2852 3.9213 0.0661 0.6564-0.007 1.359-0.007 2.022 0 0.7972-0.0661 1.5263-0.0661 2.3092-0.0605 4.3709-0.12 8.7238-0.1804 13.082-0.0453 4.5843-0.1048 9.1743-0.1521 13.752-0.0264 1.9371-0.0462 3.8873-0.0784 5.8376-0.0141 1.3732-0.1463 2.7276-0.1803 4.0932-0.0265 0.7169 0.1057 1.48 0.1057 2.2223 0 0.8755-0.1256 1.6859-0.152 2.5415-0.0132 0.9416 0.0925 1.9371-0.0199 2.8853-0.1256 0.9359-0.2323 1.9635-0.2521 2.9183-0.0132 0.5318-0.1398 1.0427-0.1464 1.5593 0 0.4647 0.1398 0.8755 0.1464 1.3402 0.0198 1.4535 0.3183 2.8739 0.2852 4.3189-0.0992 4.6646-0.1587 9.368-0.2182 14.044-0.0472 3.2442-0.0802 6.4685-0.1133 9.6995-5.1274-7.3979-9.7193-15.186-13.726-23.319h11.696v-5.8433h-14.476c-2.9051-6.4751-5.4523-13.162-7.616-20.009h22.369v-5.559h-23.345v2.3422c-0.6366-2.1561-1.2401-4.3123-1.8039-6.4883 0.0132-1.6188 0.0132-3.2234 0.0132-4.8299 0-1.8842 0.2522-3.9534-0.0793-5.8112-0.2994-1.6452-0.5648-3.2366-0.3514-4.9281 0.0784-0.5978 0.1455-1.2278 0.1323-1.818 0-0.5639 0.1596-1.1211 0.1454-1.6651-0.0123-0.5714-0.2257-1.2212-0.2852-1.8114-0.0605-0.578 0.1265-1.0946 0.1398-1.6585 0.0784-2.3875-0.2324-4.7439 0-7.1116 0.2247-2.3545 0.1331-4.8101 0.1331-7.1986 0-0.6233-0.1596-1.2268-0.1331-1.8171 0.0132-0.5043 0.186-1.1343 0.2521-1.6585 0.0992-0.8953-0.1596-1.7982-0.0141-2.7067 0.1804-1.0682 0.1464-2.1288 0.153-3.2036 0-2.3753 0-4.7175 0.007-7.0786 0-2.8928 0-5.7592 0.0208-8.6445 0-0.9813-0.1663-2.1297 0-3.1044 0.3381-1.938 0.6431-3.8684 0.9888-5.7923 0.3117-1.9162 0.6356-3.8269 0.9539-5.7309 0.186-1.1012 0.4524-2.209 0.5572-3.3178 0.0406-0.3976-0.0387-0.7622 0.0793-1.1541 0.1134-0.391 0.4383-0.697 0.4515-1.1277 0-0.1388-0.1398-0.2587-0.119-0.3711 0.006-0.1663 0.119-0.2324 0.1454-0.4184 0.034-0.3646 0-0.7622 0-1.1211-0.0132-1.3335 0.4581-2.8664 0.8226-4.1659 0.5318-1.8181 0.7433-3.5492 0.9955-5.4268 0.1001-0.7423-0.0331-1.4856 0.1124-2.2223 0.0935-0.3976 0.2521-0.8292 0.2994-1.241 0.0868-0.7555 0.3579-1.3789 0.4911-2.1429 0.1596-0.9416 0.3249-1.8899 0.4703-2.8192 0.272-1.5914 0.5383-3.1837 0.7962-4.7553 0.2314-1.3609 0.7499-2.9268 0.73-4.3132 0-0.4505 0-0.9143-0.007-1.3591-0.0274-0.8963-0.034-1.7784-0.067-2.6737 5.4135-13.274 12.332-25.8 20.552-37.303v0.6894c0 4.3322-0.3117 8.823 0.0869 13.129"/><path id="path4296" d="m252.43 328.1c0 0.4647 0 0.9294 0.007 1.3865 0.0274 3.6229 0.0595 7.2514 0.0926 10.88 0.0208 0.7357-0.1653 1.8775 0.1067 2.5736 0.1927 0.4987 0.5506 0.7631 0.9888 0.8963 0.9813 0.3173 2.3753-0.034 3.2367 0.119 0.6979 0.0991 1.3005 0.1983 1.937 0.1124 0.0869 0 0.3192 0.0538 0.4184 0.0538 0.1851 0 0.3646-0.0604 0.5704-0.0406 0.2522 0.0208 0.5837 0.1199 0.8293 0.2068 0.1256 0.204-0.0397 2.9911 0.1397 2.9911h-2.1495c-0.5582 0-1.1673 0.0529-1.7312-0.007-0.3787-0.0331-0.7366-0.2258-1.1343 0.007-0.3721 0.2257-0.2597-0.0397-0.2332 0.3844 0.0264 0.6176 0.7291 1.4799 1.0219 2.0437 0.3976 0.7962 0.7961 1.5914 1.2013 2.3885 0.8028 1.5848 1.5914 3.1573 2.3942 4.7298 0.85 1.6585 1.6848 3.3179 2.5282 4.9829 0.7556 1.598 1.4394 3.1705 2.0363 4.6826h1.1607c0.1322-0.8094 0.2323-1.6056 0.305-2.3942h-1.9833c0.0198-0.4921 0.0264-1.0417 0.0264-1.6197h2.0627c0.0331-0.8283 0.0331-1.6254 0.0142-2.4008h-2.176c-0.0397-0.5298-0.1067-1.0814-0.1927-1.6188h2.2884c-0.0661-0.8358-0.1653-1.632-0.2711-2.4083h-2.567c-0.187-0.5506-0.4127-1.1078-0.6573-1.6112h2.9523c-0.1596-0.8633-0.3456-1.6793-0.5251-2.4084h-3.5813c1.0804-0.697 1.8898-1.2268 2.5009-1.6197h0.6101c-0.5846-1.8303-1.0814-2.9249-1.0946-2.958 0.0132 0.0331-8.0476-15.438-10.084-19.352h-1.0484zm-25.541 77.955c-0.033-1.6915-0.0661-3.383-0.1133-5.0745-0.0189-1.0219-0.119-2.0504-0.1521-3.077-0.033-0.8434 0.2588-1.7255 0.2191-2.5613-0.0198-0.3721-0.2323-0.7301-0.2918-1.1012-0.0935-0.7235 0.2248-1.2609 0.2918-1.9437 0.1464-1.5064-0.1454-2.9665-0.2852-4.4445-0.1265-1.4469 0-2.7002 0-4.1603 0-0.7301 0.0331-1.479 0.119-2.1231 0.0472-0.4638-0.033-0.8888-0.0859-1.3468-0.0133-0.2059 0.0198-0.5298-0.0397-0.7093-0.0604-0.1927-0.2257-0.1199-0.272-0.2852-0.2522-0.8623-0.0529-2.1288-0.0671-3.0326-0.0519-2.0362-0.0991-4.0517-0.1388-6.0889-0.0264-0.9416-0.0463-1.8973-0.0793-2.8531 0-0.2985 0-0.5903-0.0132-0.8831-0.0274-0.6498-0.2787-1.24-0.5507-1.8303h-22.968c-0.007 1.5857-0.0255 3.1374-0.0331 4.658 0.9832-0.0265 2.0901-0.0331 2.2034-0.0331 1.0276-0.0207 2.0759-0.0207 3.1054-0.0935 0.8282-0.0595 1.598 0.1587 2.4338 0.1587 0.5308 0 0.9822 0.1662 1.5196 0.1454 0.4703-0.0188 0.8358-0.2786 1.2533-0.2975 0.339-0.0141 0.4448 0.0935 0.8424 0.0189 0.2522-0.0651 0.4175-0.1586 0.6838-0.1511 0.6035 0.0321 0.5638 0.2843 0.5638 0.8491-0.0141 0.4769 0.0671 0.8944 0.1323 1.3798 0.1067 0.9086-0.0926 1.8181-0.0926 2.7323-0.007 1.1277 0 2.2355 0.0992 3.3509 0.1265 1.3458-0.007 2.567-0.007 3.9204 0 1.1871 0.1067 2.2156 0 3.3433-0.12 1.3269 0.1124 2.6936 0.2918 3.9931 0.0727 0.5846 0 1.2476-0.0132 1.8247 0 0.5903 0.1596 1.0814 0.1067 1.6461-0.0397 0.51-0.1067 1.1277-0.1067 1.6982 0 0.7489 0.153 1.5186 0.1454 2.2222-0.0123 0.9416 0 2.0296 0.12 3.0581 0.153 1.1806-0.0123 2.1487-0.12 3.3368-0.0595 0.5969 0.0406 1.207-0.0387 1.8048-0.1067 0.8491 0.0595 1.5848 0.0793 2.4414 0.007 1.1012 0.034 2.2015 0.0397 3.3159 0.007 0.2928 0.0132 0.5639 0.0274 0.8623h0.5695l0.9558 1.6197h-1.513c0.0198 0.8019 0.0198 1.599 0.033 2.3951h2.9061l0.9416 1.6245h-3.8146c0.0141 0.7962 0.0208 1.5989 0.034 2.4017h5.1935l0.9624 1.6122h-6.1238c0 0.8028 0.0208 1.6055 0.033 2.4017h7.5037l0.9491 1.6244h-8.4263c0.007 0.7972 0.0274 1.6056 0.034 2.4018h9.8109l0.9501 1.6121h-10.735c0.0265 0.6309 0.0529 1.2467 0.1323 1.8851 0.0273 0.1719 0.0141 0.3504 0.0141 0.5223h11.377c-0.0595-3.3093-0.0859-6.5988-0.0859-9.911 0-1.2665-0.12-2.4603-0.3127-3.7211-0.1322-0.9152-0.2049-1.8247-0.2313-2.753-0.0133-0.7896 0.1652-1.4734 0.186-2.2422 0.0453-2.0371-0.0935-4.0932-0.153-6.1436zm-27.564-44.188c0-0.5846-0.0718-1.1154-0.1455-1.666-0.0198-0.2786 0.0463-0.5572 0.0132-0.8424-0.033-0.2985-0.1728-0.4845-0.1464-0.8293 0.0265-0.3711 0.0737-0.5307 0.0331-0.935-0.0661-0.8887 0.1133-1.7651 0.1256-2.6605 0.0142-1.207 0.0208-2.4017 0.0208-3.5945 0.007-0.7442 0.2852-1.0691 0.3249-1.7992 0.0264-0.7026-0.0727-1.393-0.0727-2.0891v-3.3641c0-1.8436 0.1322-3.5823 0.1322-5.4324 0-0.4383-0.1322-0.9889-0.1124-1.3865 0.0132-0.3985 0.1124-0.8028 0.1124-1.241 0-0.8821 0.152-1.7113 0-2.5075-0.3249-1.6386-0.085-3.3178-0.1653-4.9753-0.0869-1.6717-0.0264-3.384 0-5.0821 0-0.968 0.007-1.9503 0.0132-2.9126-2.634-0.0652-5.3068-0.0388-7.9409-0.1984-3.1705-0.2059-5.4929-4.7241-7.4299-7.1381-0.8963-1.1078-1.6915-2.3479-2.4414-3.5558-1.4601-2.3885 0.3655-4.9754-0.0992-7.5424-0.2257-1.2343-1.6716-2.2364-2.329-3.3376-1.3666-2.2894-2.5802-4.8299-4.2065-6.9521-0.8085-1.0417-1.5385-2.4678-1.7576-3.7881-0.1984-1.1419 0.5185-2.0627 0.5902-3.078 0.0737-0.9284-0.4967-1.9899-1.0209-2.72-0.5648-0.8028-1.3609-1.6849-2.21-2.1562-0.391 1.1882-0.3239 3.0988-0.3239 4.3851v14.237c0 5.592 0.0793 11.165 0.1454 16.757 0.0198 1.7312-0.1454 3.0988 0 4.8498 0.4042 4.7496-0.2389 9.3868 0.2588 14.097 0.5572 5.3012 1.1616 10.588 1.2674 15.929 0.0199 0.5365-0.0803 1.1466 0.0331 1.6575 0.2191 1.0219 0.4505 2.057 0.5175 3.0581 0.0784 1.0758 0.4241 1.9843 0.544 3.0657 0.0661 0.4968 0.1587 1.0672 0.2919 1.5253 0.0727 0.2389 0.272 0.577 0.2786 0.8358 0.0132 0.2267-0.1464 0.3854-0.1464 0.544 0 1.1286 0.2928 2.0769 0.2928 3.1979 0 1.1343 0.271 2.2289 0.2975 3.3632 0.033 0.6176-0.0926 1.2806 0 1.9248 0.0793 0.4967 0.2786 1.0209 0.3985 1.5252 0.5242 2.3215 0.3976 4.5173 0.4316 6.8652 0.0123 2.3894 0.0454 4.777-0.034 7.1655-0.007 0.5308 0.034 1.0474 0.0794 1.5394h24.075c0.0671-0.7036 0.1993-1.3666 0.272-2.0834 0.0661-0.6167 0.1861-1.1806 0.1861-1.8181 0-1.1541-0.2522-2.3478-0.12-3.4623 0.153-1.1739 0.12-2.4083 0.12-3.6295 0-1.1938-0.153-2.3148-0.2522-3.4623-0.0992-1.1145 0.0992-2.0098 0.0992-3.2036 0.0198-1.1947 0-2.4026 0-3.6096v-3.469zm25.429 1.0616c-0.22-0.6177-0.3863-1.2609-0.5846-1.8918-0.0463-0.1718-0.1256-0.3513-0.1927-0.5166h-9.9969l0.6299 2.4084h10.144zm-1.394-4.0281c-0.3305-0.782-0.6639-1.5782-0.9491-2.3942h-9.4993l0.6432 2.3942h9.8052zm-1.4922-4.0195c-0.2852-0.7962-0.5506-1.599-0.8292-2.3952h-18.489c0 0.7962-0.007 1.599-0.007 2.3952h19.325zm-1.3798-4.0139c-0.272-0.8425-0.5714-1.6509-1.0285-2.4018h-16.871c-0.0133 0.7962-0.0133 1.5933-0.0133 2.4018h17.912zm-1.7388-4.0271c-0.2644-0.6961-0.5506-1.4129-0.5968-1.4186-1.6585-0.007-11.994-0.0604-15.544-0.0812 0 0.4854 0 1.0096-0.0132 1.4998h16.154zm-25.109-29.786c0.2645-1.8842 0.324-3.8741 0.3051-5.8905l-1.1277 5.9962c0.2853-0.0595 0.5563-0.1057 0.8226-0.1057zm0.1719-14.223c0-3.178-0.0396-6.3617-0.2852-9.5256l-4.0932 21.832c0.1794 0.2985 0.3712 0.5969 0.5903 0.8689 0.2786 0.3844 0.6639 0.8888 1.1021 1.1475l2.686-14.322zm-0.9548-14.986c-0.3324-1.8105-0.7301-3.4425-1.1277-4.9744l-5.2737 28.048c0.5827 0.7423 1.1012 1.5385 1.6452 2.3281l4.7562-25.402zm-2.1363-8.6436c-0.4184-1.5196-0.8151-3.1185-1.1485-4.8894l-5.0471 26.887c0.0982 0.4978 0.1388 1.0087 0.0982 1.5584-0.1256 1.4062-0.4703 3.0061-0.357 4.419 0.0595 0.8359 0.391 1.4856 0.816 2.0561l5.6384-30.032zm-2.4084-18.29-6.4874 34.629c0.3712 0.4977 0.7358 1.0021 1.0087 1.5725 0.1851 0.3778 0.3702 0.7367 0.5572 1.1003l5.5052-29.374c-0.1993-2.2289-0.3976-4.9423-0.5837-7.9277zm-13.254 127.31c0 0.1785-0.0132 0.3381-0.0264 0.4637-0.0605 0.4449-0.0605 0.5639-0.0133 0.9823 0.0463 0.305 0.0463 0.6299 0.0265 0.9614h23.895c0.007-0.7952 0.007-1.6112 0.0207-2.4074h-23.903zm55.911 43.983c0.0595 0.2654 0 0.5308 0.0397 0.8028 0.0661 0.5572 0.1454 1.0738 0.1454 1.6584 0 1.1475 0.0539 2.2355 0.1398 3.3433 0.0859 1.0342 0.1001 2.0164 0 3.0525-0.0595 0.5232-0.0264 1.1277 0.0331 1.6443 0.0406 0.4042-0.0331 1.3005 0.3645 1.5385 0.4845 0.2994 1.632-0.1124 2.1628-0.1323 1.0153-0.0264 2.0239-0.0528 3.0392 0.0331 0.7962 0.0869 1.5857 0.2663 2.3536 0.3655 1.2277 0.1322 2.4565 0.1322 3.689 0.1058 0.6309-0.0123 1.2542-0.0397 1.8643-0.0529 0.4514-0.0198 1.0219-0.2116 1.4535-0.1728 0.7357 0.0472 0.4571 1.0086 0.4571 1.6461v0.8821h0.8302c-0.0208-0.6167 0.0123-1.3071 0.5166-1.6858 0.7895-0.5903 2.2355-0.425 3.145-0.425 0.697 0 1.6254 0.2862 1.8303-0.4968 0.239-0.8349-0.0661-1.8303-0.0661-2.6926 0-1.1352-0.1388-2.1968-0.1388-3.3244 0-1.1145-0.086-2.2091 0-3.2045 0.0925-1.0285-0.2786-1.9701-0.3381-2.9854-0.0265-0.6621 0.2786-1.2599 0.3305-1.9229 0.1596-1.9578 0.008-3.9875 0.008-5.95 0-2.8607 0-5.7262 0.0529-8.5661l-22.45 0.2399c0.007 1.0275 0.0265 2.0362 0.0265 3.0647 0 0.3249 0.0396 0.663 0 0.9813-0.007 0.1596-0.1587 0.2786-0.1587 0.4108 0 0.1332 0.1719 0.1332 0.1719 0.2786 0 1.2684 0.4307 2.4357 0.1322 3.7561-0.2984 1.2863 0.1133 2.2676 0.272 3.4623 0.0869 0.6639-0.0652 1.3213-0.1454 1.9503-0.0397 0.4316-0.1332 1.5328 0.119 1.8511-0.1719 0.2654 0.0869 0.2786 0.1199 0.544zm-14.973 0.2455c-0.007 0.2248-0.007 0.4704 0.007 0.7027 0.0595 0.5582 0.0264 1.1277 0.0132 1.6991h11.537c0-0.7225-0.034-1.4469-0.0407-2.1628-0.007-0.086-0.007-0.1596-0.007-0.239h-11.51zm0.0463 4.0073c0.067 0.8094 0.153 1.6188 0.1331 2.414h11.476c-0.0123-0.8028-0.0331-1.6046-0.0454-2.414h-11.564zm-2.2884 4.0337c0.1993 0.8623 0.3976 1.6642 0.5903 2.4008h13.407c-0.007-0.3778-0.0132-0.7433-0.0331-1.1135-0.007-0.425-0.0132-0.8632-0.033-1.2873h-13.932zm39.134-25.746c0.007-0.7961 0.0264-1.5932 0.0396-2.3951h-22.542c0.007 0.3448 0.0133 0.7027 0.0199 1.0408 0.007 0.4571 0.007 0.9029 0.007 1.3543h22.476zm0.0727-4.0148c0.007-0.1256 0-0.2512 0.007-0.3645 0.0198-0.6838 0.1058-1.3468 0.1256-2.0429h-22.801l0.0529 2.4074h22.616zm-79.575 44.826c-0.006 0.2654-0.006 0.5308-0.006 0.849l-0.033 1.5593h6.5535c0.007-0.697 0.0406-1.393 0.0529-2.0891 0-0.1001 0-0.2059 0.0141-0.3192h-6.5818zm-0.0727 4.0271-0.0595 2.4017h6.5346v-0.1398c0.0189-0.7565 0.0463-1.512 0.0604-2.2619h-6.5355zm-0.086 4.0195-0.0529 2.4027h6.5006c0.0142-0.8037 0.0407-1.5989 0.0671-2.4027h-6.5148zm-0.0859 4.0205-0.0331 1.4866c0 0.3051-0.0198 0.6092-0.0264 0.9086h6.4741c0.0208-0.7962 0.0539-1.5924 0.0662-2.3952h-6.4808zm-0.1134 4.0205c-0.0198 0.816-0.0453 1.6113-0.0859 2.4084h6.6139c0-0.0671 0-0.1332 0.0208-0.2002 0.0454-0.4241-0.1331-1.1466 0.1653-1.4781 0.0529 0.0926 0.1332 0.1587 0.1993 0.2248-0.1067-0.238-0.3523-0.3636-0.4316-0.6234-0.0331-0.1001-0.0331-0.2049-0.0331-0.3315h-6.4487zm-0.1388 4.0196c-0.0198 0.8103-0.0463 1.6056-0.0661 2.4083h6.528c0.006-0.7621 0.0387-1.5196 0.1124-2.2619v-0.1464h-6.5743zm67.985-27.133v2.4017h6.6734v-0.7291-1.6726h-6.6734zm6.6734 6.4288v-2.4083h-6.6734v2.4083h6.6734zm-6.6734 1.4592v12.3h-2.6728c0.2182 0.73 0.4505 1.4865 0.663 2.2222h8.6832v-14.587l-6.6734 0.0652zm-9.7193-220.31c0 0.6243 0.0463 1.2873-0.0585 1.904-0.0737 0.4383-0.306 0.8557-0.3721 1.3071-0.0331 0.3854 0.1256 0.8491 0.152 1.2477 0.0397 0.424 0.2135 0.8292 0.1464 1.2608-0.0595 0.2909-0.2323 0.5166-0.2588 0.7952-0.0463 0.5969 0.1124 1.6254 0.2654 2.2553 0.1587 0.7169-0.1058 1.7388 0.5969 2.1959 0.6696 0.4184 1.8379 0.2663 2.5812 0.1662 1.3335-0.1587 2.7729-0.3051 4.0866-0.3249 0.6753-0.0132 1.784-0.2654 2.4149 0.0198 0.6621 0.3183 0.7622 1.4998 1.0408 2.1033 0.3183 0.6961 0.5903 1.3931 0.9756 2.0561 0.8887 1.5583 1.8171 3.2177 2.5009 4.8894 0.7027 1.7774 1.5857 3.4963 2.5944 5.1481 0.4769 0.7631 0.968 1.5593 1.359 2.3611 0.2456 0.4912 0.5507 0.9426 0.783 1.4469 0.2663 0.5563 0.1662 0.782 0.0869 1.3468-0.0539 0.3183-0.0208 0.663-0.0208 0.9888-0.0331 1.0673-0.0519 2.1288-0.0661 3.197-0.0935 4.4181-0.1917 8.8362-0.2918 13.254-0.0926 4.6703-0.1993 9.3472-0.2909 14.037-0.0473 2.0041-0.0746 4.0007-0.1398 6.0048-0.0274 0.9482 0.0264 1.359 0.5572 2.1883 0.4439 0.7168 0.9548 1.3798 1.3326 2.1297 0.3117 0.6441 0.5242 1.3071 0.8897 1.9181 0.4108 0.6564 0.3976 1.0607 0.3976 1.8436 0 1.2608-0.1124 2.4999-0.0992 3.7608 0.0133 1.7595 0.0265 3.5095 0.0463 5.2605 0.007 0.8699 0.0529 1.7586-0.0463 2.6209-0.0604 0.5317-0.0859 1.3137 0.6498 1.4261 0.6243 0.0803 1.327 0.034 1.9503 0.101 0.7489 0.0916 0.7829 0.204 1.1012 0.868 0.6904 1.36 1.4469 2.6605 2.1231 4.0205 0.3447 0.6828 0.7102 1.24 1.1749 1.8445 0.9747 1.2136 1.6112 2.6661 2.3677 3.9931 0.3986 0.7102 0.663 1.4932 0.9823 2.2223 0.4382 1.0285 1.0275 2.0437 1.5583 3.0656 0.4118 0.816 0.7962 1.7104 1.207 2.5274 0.7962 1.5725 1.7123 3.2564 2.1297 4.9555 0.2852 1.1607 0.6573 2.3214 0.9756 3.4821 0.1256 0.4647 0.1256 0.9558 0.272 1.3931 0.9879 2.8465 0.9549 6.4619 0.7962 9.5068-0.1993 3.8476-1.0219 7.6755-2.448 11.259 5.3597 21.818-6.1823 33.752-6.7603 34.323-0.4241 0.459-0.5374 0.5109-1.1277 0.4713-0.5308-0.0331-1.0483-0.0463-1.5782 0.0207-0.3324 0.0322-0.6771 0.2456-0.9624 0.2975-0.3182 0.0142-0.3655-0.2257-0.6696 0-0.1265 0.8425-0.1794 1.6254-0.1794 2.4679 0 1.6121 0.2852 3.0383 0.2852 4.6306v20.943c0 0.697-0.1322 1.2807-0.1993 1.9447-0.0595 0.6771 0.2456 1.36 0.1729 2.056-0.0529 0.2985-0.2324 0.8292-0.2258 1.1343 0 0.3721 0.1058 0.8358 0.1058 1.2542 0 0.8689-0.2125 1.6717-0.1388 2.5009 0.0529 0.4052 0.1653 0.7168 0.1388 1.122-0.0132 0.3702-0.2059 0.5827-0.2918 0.9416-0.3844 0.119-0.8425-0.1067-1.2401-0.1133-0.3655-0.006-0.73 0-1.1088 0-0.6091 0-1.6584-0.2909-2.2222-0.0265-0.4505 0.2059-0.1984 0.3514-0.1861 0.7886 0.0208 0.5913-0.1322 1.1287-0.0652 1.7322 0.086 0.6044-0.067 1.1144-0.1265 1.7047-0.0727 0.6176-0.0265 1.2806-0.0265 1.9106 0 0.3183-0.0406 0.6507 0 0.969 0.1795 1.9833 0.1993 3.9808 0.1795 5.9642-0.007 0.8622-0.0671 1.7047-0.153 2.5537-0.0935 0.8491 0.0925 1.7444 0.1133 2.6133 0 0.7376-0.0869 1.5262-0.153 2.2166-0.0925 1.0748-0.033 2.1619 0.0397 3.2508 0.0264 0.5308 0.3919 2.1222-0.1455 2.3554-0.2058 0.0784-0.7829-0.1596-1.0011-0.187-0.4986-0.0387-1.0228 0.0274-1.5205 0.034-1.021 0.0265-2.0429 0.0662-3.0581 0.119-1.6122 0.0662-3.5757-0.1992-5.1416 0.1663 0.2786 1.9909 1.208 4.079 1.7926 6.0104 0.5969 1.9295 1.173 3.8741 1.7576 5.8102 1.0748 3.5502 2.1354 7.0853 3.2168 10.635 1.1276 3.7287 2.2553 7.463 3.383 11.191l-2.8787 62.897c-1.2202-0.4052-2.4282-0.8358-3.622-1.2665 0.1124-1.1352 0.2314-2.2553 0.477-3.3641 0.1653-0.7622 0.3183-1.4261 0.3183-2.2298 0-1.7038-0.0331-3.383 0.034-5.101 0.0595-1.0615 0.1464-2.1221 0.2181-3.1648 0.1332-1.7973 0.0265-3.6541 0.4383-5.4258 0.3182-1.3468 0.2786-2.9316 0.2786-4.3322 0-1.5593-0.1389-3.0978-0.1332-4.624 0-1.6585 0.2729-3.3037 0.2729-4.9753 0-1.327-0.1992-2.6738-0.2786-3.9941-0.0991-1.2334 0.006-2.5198 0.006-3.7617 0-1.5045 0.1332-2.891 0.2729-4.3511 0.1785-1.7519 0.3788-3.4699 0.5497-5.2275 0.0935-0.9945 0.2796-1.9833 0.2796-2.992 0-0.935 0.1454-1.8171 0.1454-2.7266 0-0.816 0.1124-1.6188 0.1861-2.4348 0.067-0.7026 0.2852-1.8114 0.0793-2.5018-0.9879-3.2829-1.9833-6.5601-2.9788-9.8439-1.1465-3.7882-2.2884-7.583-3.4293-11.378-1.2466-4.0856-2.2619-8.3592-3.7551-12.339-0.1851-0.5034-0.2654-1.0078-0.4108-1.5253-0.3447-1.0937-0.6772-2.0891-0.8302-3.197-0.3834-2.4555-1.4525-4.9101-2.023-7.3638-0.6233-2.6208-1.5914-5.1415-2.5075-7.649-0.1728-0.5053-0.3976-1.0087-0.5969-1.5263-0.2058-0.5638-0.1794-0.9425-0.2663-1.5262-0.0718-0.5308-0.3107-1.1409-0.4637-1.6584-0.3976-1.4668-1.5914-2.8985-1.6254-4.4644 0-0.0265 0-0.0463-0.007-0.0803-0.007-0.4373-0.0265-0.8878-0.0265-1.326h-1.8246v3.0846h-9.2679v-3.0846h-1.9559c0.5431 2.1751 0.8623 3.4623 0.8623 3.4623l-1.7321 58.93h30.304l0.8755 3.3434h-31.286l-0.0793 2.328h32.095l-1.6849 1.6112h-12.4c-0.0198 0.8038-0.0595 1.6075-0.0661 2.4027h9.9582l-1.6726 1.6188h-8.3319l-0.0661 2.3951h5.9037l-1.6849 1.6244h-4.2594c-0.0189 0.8038-0.0529 1.6122-0.0718 2.4084h1.8237l-1.6848 1.6263h-0.1785c-0.0605 2.1023-0.1134 4.2255-0.1738 6.3344-0.0454 1.5791-0.0652 3.1714-0.1256 4.7572-0.0529 1.3798 0.0604 2.7795-0.0397 4.1659-0.0859 0.8831-0.1851 1.7642-0.3051 2.6341-0.2653 1.7434-0.153 3.569-0.3579 5.3002-0.2323 1.904 0.0331 3.7617 0.2049 5.6988 0.2664 2.8201-0.152 5.8045-0.2257 8.6567-0.007 0.1464-0.007 0.3051-0.0123 0.4647-7.3307-3.297-14.403-7.0663-21.182-11.258 0-0.3522 0.0189-0.7159 0.0189-1.0691 0.1398-4.351 0.2664-8.6955 0.392-13.042 0.1388-4.5966 0.271-9.1942 0.4108-13.792 0.1322-4.6703 0.272-9.3406 0.4241-14.011 0.1331-4.5975 0.2663-9.1743 0.3985-13.765 0.1322-4.3322 0.2654-8.6776 0.3986-12.996 0.1058-3.9204 0.2323-7.8342 0.3447-11.749 0.0926-3.3169 0.1861-6.6536 0.2852-9.9705 0.0794-2.5604 0.1464-5.134 0.2314-7.7086 0.0472-1.632 0.0935-3.2782 0.1464-4.929 0.0671-2.2554-0.4439-4.2925-1.1664-6.4808-0.0935-0.2664-0.1728-0.545-0.2729-0.7971-0.749-1.99-0.9294-4.046-1.4261-6.0898-0.2532-1.0616-0.5308-2.1231-0.8293-3.1903-0.2654-0.969-0.7621-1.8313-0.9491-2.7805-0.1729-0.9614-0.2116-1.9503-0.4439-2.9193-0.1001-0.4646-0.153-0.9539-0.272-1.3722-0.2456-0.8623-0.7036-1.4932-0.7102-2.3952-0.0133-0.9812-0.3514-1.9502-0.5903-2.8985-0.4505-1.8048-0.9492-3.6021-1.3808-5.4201-0.1521-0.6234-0.2182-1.2873-0.3967-1.9106-0.3522-1.0616-0.6894-2.1628-0.9624-3.2244-0.458-1.8577-0.8292-3.7088-1.2665-5.5665-0.425-1.7378-0.7905-3.4161-1.3411-5.0349-0.2654-0.7829-0.3437-1.6584-0.4372-2.4678-0.1398-1.2533-0.7962-2.4149-0.8368-3.6616-0.0123-0.5109 0.007-1.0219 0.0141-1.5262h-24.068c-0.1464 1.1749-0.1124 2.4943 0.0406 3.6691 0.9086 0 1.7964-0.0198 1.9229-0.0406 0.9095-0.1057 1.7387-0.2323 2.6804-0.1057 0.9822 0.1265 2.0296 0.1463 3.0052 0.2786 0.6167 0.0859 1.2542 0.1001 1.8577 0.153 0.3513 0.0132 3.3433-0.2985 3.4359-0.0133 0.1398 0.477 0.2994 0.9417 0.4316 1.4195 0.5034 1.6311 0.8491 3.3169 1.4063 4.9423 0.3315 0.9879 1.0285 1.837 1.1871 2.8589 0.1058 0.5912 0.3523 1.2079 0.1058 1.5394-0.0991 0.1322-0.2975 0.2125-0.6299 0.2125-1.0616-0.007-2.1364-0.0331-3.197-0.1398-1.2344-0.1067-2.5084 0.0737-3.7551-0.033-0.6233-0.0595-5.8574-0.0595-8.7106-0.0255 0.0671 0.7159 0.1001 1.4185 0.1001 2.1542 0 0.6649-0.1256 1.2543-0.1398 1.9107-0.007 0.5449 0.0473 1.0615 0.0803 1.5932 0.749 0.0388 1.479 0.0983 1.5914 0.0983 0.6177 0 1.1145-0.0123 1.666 0 0.6233 0.0273 1.1872-0.1257 1.8039-0.1323 0.7168-0.0189 1.4204 0.0992 2.0901 0.0992 1.24 0.008 2.5868 0 3.8807 0.0331 0.6431 0.0141 1.2995 0.0273 1.9503 0 0.5836-0.0189 1.1408-0.3901 1.7377-0.2579 0.2324 0.2919 1.3005 0.1067 1.7312 0.1256 0.1596 0 0.8831 3.6616 0.9359 3.9015 0.2787 1.1674 0.5573 2.3149 0.8227 3.4765 0.1596 0.63 0.73 2.0561 0.3513 2.6662 0.1653 0.2191 0.0727 0.4845 0.152 0.7565 0.0473 0.1861 0.2201 0.3778 0.2588 0.5837 0.1332 0.4306 0.12 1.1673 0.3854 1.4988-0.1852 0-0.3854 0.034-0.5374 0.119-0.3041-0.1851-1.021-0.1851-1.3931-0.2248-0.544-0.0538-1.1277 0-1.6584 0-1.0739 0-2.1694 0.0926-3.2111 0-1.0078-0.0991-2.0098-0.1398-3.0515-0.1398-0.5837 0-1.2335-0.0859-1.8115 0-0.51 0.0671-5.6383 0.1464-8.1723 0.153 0 0.6102-0.1596 1.1872-0.1596 1.7841 0.008 0.8302-0.1388 1.5989-0.1388 2.4149 0.0132 0.4912 0.033 1.0021-0.034 1.4932-0.0652 0.5638 0.067 0.9152 0.0803 1.4327 0.0264 0.5176-0.2654 1.0956-0.3315 1.6122-0.1464 1.4337 0.2446 2.8324 0.2852 4.1792 0.0264 0.6441 0.033 1.3269-0.034 1.9635-0.0652 0.6639-0.3173 1.3864-0.2512 2.0636 0.0859 0.7433 0.007 1.3855 0 2.1826 0 0.6573-0.0142 2.4877 0.0661 3.1242 0.0529 0.3853-0.0661 0.2852 0.2984 0.4118 0.2191 0.0727 0.5837 0 0.816 0h4.0932c0.3504 0.0463 0.2588 0.0397 0.6498 0.0255-0.0925-0.006 0.306-0.0189 0.2125-0.0255h10.176c0.3051-0.0265 0.6101-0.0463 0.9218 0h0.0793 2.3819c1.6858-0.1927 3.3773-0.0198 5.0415 0h5.5401c2.1429 0 4.266 0.0198 6.3957 0.2918-0.067 0.511 0.2447 0.969 0.1653 1.5187-0.033 0.2323-0.2852 1.1938-0.4571 1.3534-0.4382 0.458-1.2013 0.2266-1.7519 0.1794-0.5516-0.0463-1.1079 0-1.6585-0.007-0.7763-0.0208-1.5385 0-2.2893 0h-17.195c-0.5317 0-1.1475-0.033-1.5592-0.033-0.5374-0.007-1.0947 0.033-1.6387 0.033-1.326 0-2.6274-0.1256-3.8873-0.007-0.9425 0.0926-1.8908-0.4316-2.8324-0.2248-0.578 0.1256-0.9888 0.2314-1.6131 0.2314h-2.0693c-0.0264 1.0285-0.0529 1.7907-0.067 2.568h6.5752v-0.2399c0.51 0.0264 1.0351-0.1851 1.5328-0.1124 0.3514 0.067 0.6234 0.2059 0.9681 0.2588 0.7093 0.1001 1.5187 0 2.2355 0 0.7962 0 1.5715-0.0935 2.3554-0.1464 0.4043-0.0189 0.7103 0.1596 1.1088 0.1464 0.3372 0 0.5827-0.1984 0.9813-0.1464 3.0647 0.4117 6.3212-0.238 9.4199 0.1728v0.0671h8.5047l-1.6254 1.6112h-6.8397c-0.0264 0.5308-0.0661 1.0615-0.0925 1.6121 0 0.2645-0.007 0.5308-0.007 0.7962h4.5371l-1.6122 1.6188h-2.9655c-0.0199 0.6696-0.0331 1.3468-0.0331 2.0305-0.0198 0.1124-0.0198 0.2447-0.0198 0.3712h0.6167l-0.6299 0.6233c-0.052 2.5746-0.1002 5.1548-0.1587 7.7417-0.0737 3.8807-0.1596 7.768-0.239 11.655-0.0528 2.1893-0.0925 4.3662-0.1331 6.5554-0.052 1.9437-0.2314 3.9336-0.2314 5.8575 0 0.7489 0.2786 1.546 0.2578 2.3611-0.0132 0.6243-0.3447 1.0691-0.2786 1.6783 0.0538 0.5515 0.1861 1.0823 0.1332 1.666-0.1001 1.1475-0.4118 2.3214-0.5572 3.4689-0.153 1.2533 0.0132 2.6275 0.0132 3.8949v3.9931c0 1.4271-0.12 2.687 0.0141 4.0998 0.1512 1.3931-0.0141 2.687-0.0141 4.0933 0 0.8755 0.1058 1.8511 0.0991 2.6803 0 0.5308-0.1983 1.1012-0.2521 1.6584-0.0794 0.9549 0.1794 1.8445 0.2323 2.7729 0.0265 0.5969-0.1993 1.1013-0.2455 1.6783-0.3835 4.472-0.1918 9.0553-0.2853 13.534-0.0141 0.8878-0.033 1.7774-0.0462 2.6728-6.6338-4.8828-12.923-10.19-18.828-15.882 0.034-2.0494 0.0935-4.1064 0.152-6.1559 0.1341-4.5975 0.2465-9.2083 0.3787-13.806 0.0529-1.5848 0.086-3.1374 0.1332-4.7222 0.0331-1.1749 0.4241-2.2431 0.4241-3.4368 0-1.0616 0.0264-2.3026 0.0264-3.4633 0-0.7754-0.1917-1.6245-0.1322-2.3677 0.0396-0.511 0.1322-0.969 0.1322-1.5329 0-1.1739 0.2796-2.2884 0.2796-3.4632 0-1.2203 0.3843-2.4074 0.2521-3.6154-0.0736-0.663-0.1662-1.3864-0.1133-2.0825 0.0463-0.5251 0.1927-0.969 0.1256-1.5328-0.0793-0.9558-0.2059-1.9172-0.238-2.9183h-6.5412c0 0.1785-0.0208 0.3702-0.0208 0.5638v1.8369h6.1833l-1.6122 1.6188h-4.471c0.0198 0.1917 0.034 0.3721 0.0463 0.5705 0.007 0.6507-0.1058 1.2145-0.1256 1.8237h2.1354l-1.6046 1.6188h-0.4175c0.0189 0.2058 0.0331 0.3985 0.0123 0.5912-0.0265 0.3381-0.1587 0.6101-0.1464 0.968 0.0208 0.3051 0.153 0.5573 0.153 0.8359 0 0.5307-0.2711 1.1749-0.3976 1.7047-0.1332 0.577 0.1124 1.1409 0.1124 1.7113 0 0.5185-0.0794 1.0559-0.0935 1.5659-0.0189 0.9822-0.0189 1.9371 0.0869 2.8928 0.0925 1.0352-0.1653 2.0627-0.0265 3.0912 0.0529 0.3778-0.0132 0.8698 0 1.2608 0.0265 0.4779 0.1653 0.8888 0.1653 1.3931 0 0.9954-0.1322 1.9238-0.1322 2.9183 0 0.4515 0.0991 1.0748 0 1.5263-0.0463 0.186-0.2456 0.2125-0.2919 0.4051-0.0396 0.205 0 0.4902 0 0.7027 0.0199 0.9482-0.2389 1.9106-0.1322 2.9183 0.0926 0.9624 0.1058 1.8785 0.0132 2.9193-0.1001 0.9766-0.3182 1.9578-0.4316 2.9127-0.0529 0.4712-0.033 1.088 0 1.5592 0.0331 0.2919 0.1134 0.5365 0.1134 0.8028 0.0198 0.7697 0.0198 1.5593 0.0198 2.3413-1.088-1.1532-2.1562-2.3224-3.2319-3.502 0.0803-3.2716 0.1464-6.5478 0.2125-9.8251 0.0671-3.3575 0.1398-6.7074 0.2125-10.077 0.0595-2.8333 0.4647-5.6459 0.4647-8.4915 0-1.5923-0.1653-3.2045-0.1464-4.7562 0-1.4271-0.12-2.9854-0.12-4.3133 0-0.6828 0.2003-1.359 0.2853-2.0428 0.1133-0.7622 0-1.3997-0.052-2.1552-0.0991-1.7189 0.0935-3.5228 0.1322-5.2474 0.0869-3.8882 0.1597-7.7746 0.2532-11.67 0.0321-1.6773 0.0585-3.3754 0.0982-5.0546 0.0141-0.6829 0.2333-1.2136 0.2786-1.8776 0.0538-0.6025-0.0453-1.2202-0.0453-1.8303 0-1.0351-0.0473-2.0627 0.1322-3.0581 0.0727-0.4175 0.3447-0.7773 0.2984-1.2476-0.0529-0.5308-0.2654-0.9757-0.2852-1.5395-0.0132-0.8944 0.1398-1.9238 0.1398-2.9127 0-1.0473 0.0264-2.2015 0.2786-3.1903 0.2777-1.1201 0.1653-2.1155 0.1388-3.3037-0.0264-0.9614-0.1719-2.0031-0.2918-2.9381-0.0463-0.4581 0.007-0.9426 0.007-1.3865-0.007-0.3324-0.0132-0.6507 0.0397-0.9822 0.1133-0.9085-0.1266-1.7916-0.1266-2.6869 0.0142-1.1409 0.0472-2.2884 0.0737-3.4303 0.0396-2.209 0.0925-4.4247 0.1265-6.6271 0.0661-2.5793 0.1124-5.1472 0.1719-7.7218 0.0199-1.2674-0.0595-2.6001 0.0869-3.8609 0.1048-1.054 0.3183-2.1165 0.4373-3.1771 0.0793-0.8358 0.0397-1.5867 0.0529-2.3422 0.0396-1.5659 0.0595-3.2706 0.119-4.8894 0.0406-1.6849 0.186-3.3433 0-4.863-0.0926-0.8358-0.1445-1.6376-0.1445-2.5008 0-0.7896 0.271-1.5659 0.1445-2.3545-0.1719-0.8888-0.1587-1.7246-0.1389-2.6275 0.0463-1.9899 0.0794-3.9667 0.1266-5.9575 0-0.12 0-0.2456 0.0123-0.3844-0.0265-0.1927-4.7364-47.227-4.7364-47.227v-55.327c1.479-1.7047 3.0062-3.3698 4.538-5.0094l-0.8556 4.5919c0.3976 0.8491 1.0275 1.6585 1.6121 2.3876l1.8049-9.6522c0.5034-0.511 0.9945-1.0285 1.4913-1.5196 0.2002-0.2059 0.4183-0.4043 0.6176-0.6035l-2.5339 13.461c0.305 0.3447 0.6101 0.6753 0.9888 0.9879 0.2446 0.1917 0.5166 0.3712 0.7886 0.5506l3.2839-17.461c0.6696-0.6365 1.3666-1.2863 2.056-1.9238l-3.9336 21.017c0.3787 1.2665-0.1719 2.7465-0.1133 4.0337 0.0207 0.8349 0.4051 1.8238 0.8896 2.772l5.6384-30.084c0.6837-0.5979 1.3609-1.2004 2.0371-1.7917l-6.3816 34.093c0.51 0.8491 1.021 1.6849 1.5791 2.5273l7.2571-38.703c1.1475-0.9548 2.2884-1.8964 3.4699-2.8192 0.0794 1.5924 0.1663 3.1913 0.2588 4.7836 0.153 2.7531 0.3183 5.4929 0.5166 8.2328 0.1001 1.1881 0.1067 2.4414 0.2928 3.6087 0.3457 2.0428 0.3712 4.1659 0.8349 6.1889 0.2333 1.0691 0.5515 2.1373 0.8226 3.1979 0.2333 0.9756 0.4382 2.057 0.6904 3.0525 0.5638 2.3006 0.9425 4.5305 1.6386 6.8122 0.3315 1.1154 0.4845 2.3092 0.5837 3.4633 0.0472 0.544 0.2059 1.1343 0.1464 1.6651-0.0662 0.5374-0.2125 1.0889-0.1464 1.6849 0.611 5.0688 0.3447 10.31 0.306 15.418 1.1475 0 2.2487-0.153 3.4028-0.1133 1.5725 0.0463 3.1582 0.1133 4.7298 0.1133 1.4129 0 2.7729 0.1455 4.1735 0.1322 0.7357 0 1.4063 0.1653 2.1297 0.1389 0.1851-0.007 2.9051-0.4241 2.9051-0.2711v-37.848c-0.153-0.5847-0.3523-0.9955-0.4514-1.6254-0.0463-0.4316-0.2654-0.8425-0.3721-1.2476-0.1719-0.749-0.3637-1.5848-0.5705-2.3545-0.2049-0.8359-0.3183-1.6708-0.5497-2.5198-0.1463-0.545-0.5109-1.0493-0.6308-1.6594 0.8424 0.0661 1.4128-0.7971 2.1892-0.5771 0.7829 0.2116 0.9491 0.9624 1.1144 1.7048 0.3259 1.3807 1.1409 2.5736 1.5395 3.9336 0.1992 0.6176 0.0538 1.1484 0.696 1.3335 0.6507 0.1719 1.6462-0.033 2.3224-0.0595 1.2807-0.0463 2.6142 0.1984 3.927 0.1984 1.2344 0 2.3488-0.1389 3.5558 0.0264 0.0662 0.5251 0.034 1.0021 0.1597 1.4998 0.119 0.4977 0.3711 0.9888 0.2512 1.5196-1.5055 0.1927-3.0317 0.2257-4.5768 0.2257-0.0132 0.868-0.0132 2.0702-0.0132 2.1694-0.0199 1.7973-0.0265 3.5879-0.0321 5.3937-0.0208 0.7424-0.1011 1.3723-0.2069 2.0825-0.1265 0.7301 0.0869 1.4724-0.0462 2.2091-0.0803 0.4911-0.1332 0.9293-0.1002 1.4129 0.0671 1.2277 0.2664 2.2884 0.2664 3.5227-0.0142 2.5935-0.0472 5.1813-0.0727 7.7681-0.008 1.0549-0.0274 2.1108-0.0274 3.1714 0 0.4307 0 0.8491-0.0133 1.2873-0.0198 0.5827 0.0133 1.5121-0.186 2.0372-0.2446 0.6158-2.1817 0.357-2.7993 0.4297-0.6498 0.0803-1.293 0.1067-1.9437 0.12 0.034 0.2852 0.0538 0.5364 0.0208 0.5846-0.2333 0.3636-0.008 0.8084 0.033 1.2259 0.0331 0.4514 0 0.9293 0 1.3864 0 0.3853-0.0604 0.6573 0 1.1154 0.0331 0.3721 0.2248 0.7763 0.1984 1.1078 0.0132 0.0652 0.0802 0.1785 0.0991 0.2588 0.2852 0 0.4977 0.1398 0.7697 0.1851 0.2919 0.0463 0.3259-0.007 0.5979-0.0453 0.1719-0.007 0.5572 0.1256 0.7225 0.1256 0.2455 0.0132 0.544 0.0397 0.8094 0.033 1.1805 0 2.3157 0.1266 3.5161 0.0397 1.327-0.0859 2.6539-0.1719 3.9799-0.1719 2.0967 0 4.2122-0.0604 6.257 0.1322 1.0672 0.0992 2.0031-0.1322 3.0571-0.1322 0.4921 0 1.0285-0.0604 1.5329 0 0.5241 0.0454 0.9624-0.0604 1.5262 0 0.9954 0.0992 1.9965 0.1322 3.0572 0.1322 0.6441 0 1.3014 0.1266 1.9512 0.1266 0.5638 0.006 0.9813-0.2257 1.4922-0.2663 0.0992 0.7366 0.1266 1.6055 0.0264 2.3686-0.152 1.0351-1.1078 0.7367-1.9502 0.8293-0.7291 0.067-1.4658 0.0595-2.2015 0.1322-1.5999 0.1596-3.2319 0.1388-4.8507 0.1388-1.7897 0-3.4293-0.1322-5.2001-0.1322-0.783 0-1.5593-0.007-2.3224 0-0.7697 0-1.479-0.2446-2.2223-0.1388-0.6828 0.0991-1.2939 0.1388-1.9767 0.1388h-6.3684c-1.9701 0-4.0007 0.459-5.984 0.2522-0.4977-0.0595-0.9954-0.1653-1.5262-0.12-0.3844 0.034-0.4316 0.034-0.8292 0-0.3646-0.0321-0.7499 0.034-1.1145 0.0208-0.3116-0.0208-0.6365-0.1927-0.9746-0.1596-0.6706 0.0736-1.361 0.2389-2.0835 0.1596-1.6858-0.2248-3.3433 0.0397-5.0348-0.0208-0.8425-0.0123-1.7718-0.1445-2.601-0.237-0.239-0.034-3.2244 0.1256-3.2244 0.1048-0.0198 0.816-0.3315 2.243-0.0198 2.9854 0.2918 0.663 1.0616 0.5912 1.6849 0.6564 0.4118 0.0406 0.7301 0.007 1.1343-0.0321 0.2323-0.0331 2.9334 0.0387 2.9334 0.0387-0.0208 0.8566-0.0208 1.7123-0.0208 2.5547 0 1.5451 0.4383 3.1044 0.2985 4.6372-0.0671 0.6366-0.1851 1.293-0.1851 1.9305-0.0274 1.784-0.2324 3.4831-0.0671 5.2605 0.1332 1.4592-0.2323 2.992-0.3041 4.4776-0.0812 1.208 0.1256 2.3885 0.1256 3.5965 0 0.5704-0.0869 1.2929 0.1058 1.8568 0.1728 0.5185 0.2323 0.4117 0.7499 0.3985 0.4703-0.0123 0.9482 0 1.4327 0.0132 1.0956 0 2.1892 0.0265 3.2838 0.0133 0.9095-0.0265 1.8313-0.1653 2.7333-0.0728 0.4712 0.0595 0.9482 0.034 1.4129 0.034 0.9359 0 1.8718 0.171 2.7861 0.2777 0.2134 0.0264 0.4316 0.0132 0.6441 0-0.0803-2.1363-0.1455-6.6602-0.086-7.0777 0.1511-1.2617-0.0141-2.5953 0.1511-3.9015 0.0671-0.6639-0.1652-1.3326-0.1652-1.938 0-0.3116 0.153-0.6422 0.153-0.9812v-0.9615c0-0.6441-0.2191-1.1947-0.1389-1.8247 0.0388-0.2786 0.1181-0.4977 0.1389-0.816 0.0122-0.4438-0.0208-5.8508 0-5.8508h9.1752v19.796 3.8476c-0.007 0.7036-0.153 1.2335-0.339 1.8965-0.0661 0.2521-0.0803 2.2695-0.0132 2.2761-0.2182-0.0198-1.1872 0.1464-2.1099 0.2654 0.4646 1.1616 0.7234 2.3885 1.1144 3.5823 0.3986 1.24 0.6432 2.4347 1.1683 3.6417 0.7367 1.6462 1.3855 3.3641 2.1165 5.0226 0.4769 1.0672 0.8755 2.1297 1.2996 3.2111 0.1917 0.4977 0.1917 1.0616 0.425 1.5385 0.1718 0.3523 0.577 0.6904 0.5968 1.0946 0 0.1067 0 0.1983 0.007 0.2985 0.0661 3.4698 0.1586 6.9463 0.2323 10.409 0.0397 1.6188 0.305 3.4104 0.0992 5.0018-0.1729 1.3014-0.3977 2.7067 0.0925 3.9874 0.3117 0.8236 0.3051 1.8974 0.3051 2.7795 0 0.969 0.0935 1.8247 0.1794 2.7531 0.0397 0.3655 0.1728 0.8292 0.1133 1.274-0.0528 0.3853-0.2531 0.749-0.2927 1.1145-0.2314 2.0097 0.1397 3.8004 0.1397 5.8376v1.546c0.0133 0.6498-0.2058 1.2401-0.1397 1.8842 0.1662 1.5593 0.1926 3.1507 0.2191 4.7232h1.4667v-2.176h9.8506c0.7763 0 1.6065-0.0992 2.3752 0.0141 0.7036 0.1115 1.3666 0.3183 2.0693 0.2182 0.6451-0.0727 1.2873-0.1067 1.9512-0.1067 0.6772 0 1.4195-0.086 2.0835 0 0.4835 0.0604 1.1871 0.0869 1.6376 0.3126 0.1729 0.6167 0.4383 1.0285 0.392 1.6575v0.0803h1.0408c0.034-0.2787 0.1992-0.6234 0.1067-0.8623 0.4637-0.2191 1.3269-0.1464 1.8247-0.2135 0.7961-0.0982 1.5781-0.2106 2.3554-0.0717 0.5166 0.0925 0.8821 0.1652 1.2599-0.1389 0.3315-0.2597 0.5969-0.7499 0.849-1.0889 0.8293-1.1343 1.5593-2.3545 2.1893-3.6154 0.1057-0.1926 0.1983-0.391 0.2984-0.5978l0.1719-1.4582h0.4921c0.3305-0.7896 0.6299-1.5923 0.8953-2.3961h-1.174c0.052-0.5307 0.0662-1.0738 0.0926-1.6244h1.5659c0.2115-0.7896 0.391-1.5923 0.543-2.3951h-2.0749c-0.008-0.5431-0.0142-1.0748-0.0416-1.6188h2.3895c0.1124-0.7952 0.2049-1.6112 0.271-2.4074h-2.8522c-0.0519-0.5449-0.1331-1.0748-0.2115-1.6122h3.1308c0.0331-0.8169 0.0331-1.6055 0-2.4017h-3.6097c-0.1388-0.544-0.2918-1.0946-0.4703-1.6254h4.0328c-0.0718-0.8027-0.1389-1.5989-0.2446-2.4017h-4.7166c-0.2597-0.5572-0.5449-1.0946-0.8566-1.6112h5.3078c-0.119-0.8103-0.2852-1.6065-0.4515-2.4159h-6.6205c0.425-0.5771 0.8368-1.1144 1.2136-1.6046h5.0424c-0.2191-0.8028-0.4449-1.6188-0.6838-2.415h-2.4546c0.5308-0.6431 0.9954-1.1739 1.3874-1.6187h0.5496c-0.3315-0.9492-0.663-1.8974-1.0417-2.8334-0.5903-1.4988-1.24-2.9514-1.9229-4.385l-10.449-20.604s-0.2644-30.624-0.2711-31.406c-0.5383-0.9945-1.0558-2.0108-1.5725-3.0128-0.3126-0.5903-0.4448-1.2202-1.1682-1.2665-0.5166-0.0331-1.0474 0.2389-1.5659 0.2654-0.6422 0.007-1.2996-0.007-1.956 0-1.2806 0-2.7143-0.1332-3.8816-0.119-0.782 0.007-1.4658 0.0595-2.2223-0.0331-0.663-0.0793-1.2665-0.1398-1.9569-0.1398-0.7027 0-1.4261-0.033-2.1496-0.0661-0.3711-0.007-1.8303 0.153-2.0758-0.0727-0.272-0.2389-0.0662-1.5527-0.0662-1.9437 0.006-0.697 0.0123-1.393 0.0189-2.0768 0.0274-4.1735 0.0605-8.3583 0.1068-12.532 0.0198-4.3652 0.0528-8.7229 0.0925-13.088 0.0198-1.4006 0.0265-2.8003 0.0463-4.2132 0.007-0.3646 0.007-0.7234 0.007-1.0748 0-1.1069-0.4571-1.9767-0.8018-3.0052-0.3325-0.9284-0.2588-1.9767-0.6234-2.9051-0.3258-0.8491-0.7234-1.6188-0.9293-2.5085-0.1256-0.4769-0.1993-0.9151-0.2918-1.3864-0.0661-0.3447-0.2654-0.7952-0.2654-1.0946 0.0991 0.0274 0.1662 0.0208 0.2654 0.0604 0.391-0.2399 1.0615-0.7499 1.5252-0.7772 0.1663-0.0123 0.8557 0.0746 0.9823 0.1737 0.3721 0.2513 0.2587 0.51 0.4174 0.9416 0.2663 0.6961 0.6243 1.3468 0.8434 2.0825 0.0793 0.2994 0.2389 0.6904 0.272 0.9624 0.0387 0.3249-0.0935 0.8888 0.2257 1.122 0.1795 0.1115 0.8217 0.0123 1.0606 0.0265 0.7301 0.0453 1.4932 0.238 2.2157 0.2248 0.8755-0.0208 1.8114-0.0473 2.7606 0.0273 0.9615 0.0652 1.9097 0.1653 2.9051 0.1455 0.6904-0.0265 1.6792-0.5705 2.3082-0.187 0.2532 0.3202 0.3589 0.3324 0.3457 0.6573 0 0.2059 0.2456 0.4316 0.2456 0.6309 0 0.1662 0.1445 0.5771 0.1445 0.7423 0.0207 0.5582-0.0388 0.6111-0.3108 1.1815-0.8169 0.119-2.3478-0.2191-3.1572-0.1199-0.3051 0.0331-0.664 0.2191-0.9558 0.2852-0.477 0.1067-0.7622 0.0472-1.2731 0-0.7971-0.0727-1.5659-0.391-2.3489-0.391-0.4778 0-2.5745-0.1596-2.8125 0.2985-0.1861 0.3579 0.4703 1.6641 0.5969 2.0759 0 0-0.0199 0.611-0.0199 1.6584 1.718 0.0198 3.4359 0.1067 5.1548 0.1133 0.4175 0 1.14-0.3116 1.5121-0.0727 0.4769 0.3117 0.2852 1.2665 0.2852 1.7312v12.107c0 1.6651 0.2125 3.3443 0.007 4.9886-0.0529 0.4117-0.1454 0.7763-0.1388 1.2476 0 0.2786-0.0737 0.9558 0.1124 1.1541-0.0265 0.0661-0.0529 0.1322-0.1001 0.1993 0.3985 0.4637 0.0736 1.7708 0.0207 2.2959-0.0935 0.7952-0.033 1.6509-0.033 2.4603 0 0.8028 0.0123 1.665 0 2.3687-0.007 0.4505 0.1058 1.7311-0.153 2.2156h0.186c1.3402 0 2.687-0.0132 4.0262 0 0.5308 0.0132 1.1484 0.1993 1.3931-0.3447 0.2455-0.5383-0.0388-1.4469-0.0388-2.0032 0-1.0417-0.1407-2.0173-0.1407-3.0656 0-1.0219 0.1596-2.0891 0.2796-3.0515 0.0802-0.544 0-1.1277 0-1.6717 0-0.5308-0.1861-1.0285-0.1389-1.5262 0.0728-0.9275 0.3041-1.9635 0.4241-2.9184 0.1256-0.9878 0-2.056 0-3.0515v-3.0722c0-0.902-0.2257-1.7898-0.2465-2.687-0.0387-0.8689 0.1199-1.7699 0.1332-2.6529 0.0472-1.837 0.0859-3.7022 0.1265-5.5534 0.0331-1.6915 0.2323-3.4557 0.1124-5.1406-0.0935-1.2145-0.7489-2.8654-1.3402-3.9666-0.238-0.4383-1.0417-1.7784-1.5517-1.8313 0.0265-0.0935-0.0132-0.1398 0.0595-0.2588-0.033-0.0793-0.0595-0.0397 0-0.1332-0.033-0.0595-0.0992-0.0859-0.152-0.1331 0.0651-0.0123 0.0793-0.0718 0.0651-0.1389-0.424-0.2247-0.4835-1.1144-0.6422-1.5318-0.6318-1.752-1.666-3.4104-2.4688-5.0878-0.578-1.1815-1.1343-2.3686-1.7056-3.5567-2.2412-0.0529-4.6222 0.1926-6.8388-0.0794-0.9954-0.119-1.8567-0.0595-2.787-0.1662-0.3636-0.0463-1.1003-0.0463-1.3591-0.3183-0.3116-0.3249-0.1728-1.0748-0.1728-1.4998-0.007-0.5893 0.0992-0.9878-0.0265-1.5186-0.0925-0.358-0.0793-0.6961-0.0396-1.0606 0.2257-2.3555 0.0661-4.8101 0.0661-7.192v-8.9288c1.1012-0.5118 2.2157-1.0218 3.3235-1.5063 0.1265 2.7001 0.0198 5.4126 0.0198 8.1127"/><path id="path4298" d="m238.51 361.65c-0.7367 0-1.48 0.238-2.2431 0.1662-0.7499-0.0869-0.7499-0.5515-0.9624-1.1947-0.3636-1.0738-0.7291-2.1363-1.0936-3.1969l11.39 0.1322c0.5969 1.2599 1.2872 2.5207 1.7916 3.7938-1.0077-0.1454-2.1364 0.0992-3.1856 0.0992h-1.5244c-0.2323 0-0.4646-0.006-0.6837-0.0321-0.3249-0.0331-0.4109 0.0198-0.6829 0.0529-0.9624 0.0793-1.8974 0.1926-2.8059 0.1794"/><path id="path4300" d="m247 348.11c0 1.1532 0.4439 2.9118-0.9832 3.3755-0.629 0.2059-1.1664 0.0142-1.8114-0.0331-1.173-0.1114-2.2884 0.1332-3.4614 0.1332-1.1607 0-2.1562-0.272-3.3377-0.272-4.3586 0-8.7295 0.1388-13.108 0.1388 0-0.7829-0.3721-2.4414 0.2909-2.9183 0.033-0.0331 0.067-0.0538 0.1067-0.0671 0.7895-0.3834 1.9833-0.2049 2.8465-0.2049h4.0262c1.3005 0 2.4546 0.1067 3.7343-0.0463 0.8831-0.1001 11.697-0.1322 11.697-0.1058"/><path id="path4302" d="m164.59 255.16c-36.162 36.169-58.572 86.082-58.572 141.14 0 55.063 22.41 104.98 58.572 141.15 36.162 36.168 86.082 58.544 141.14 58.544 55.061 0 104.98-22.376 141.14-58.544 36.168-36.168 58.558-86.089 58.558-141.15 0-55.054-22.39-104.97-58.558-141.14-36.161-36.168-86.082-58.565-141.14-58.565-55.062 0-104.98 22.396-141.14 58.565zm345.84 141.14c0 112.89-91.814 204.71-204.7 204.71-112.88 0-204.7-91.814-204.7-204.71 0.007-112.87 91.827-204.69 204.7-204.69 112.88 0 204.7 91.821 204.7 204.69"/></g></g></g><g id="g4304"><g id="g4306" fill="#275d38" clip-path="url(#clipPath4308)"><g id="g4312" fill="#275d38" clip-path="url(#clipPath4314)"><g id="g4318" clip-path="url(#clipPath4320)" fill="#275d38"><path id="path4324" d="m102.3 192.92c-52.093 52.12-84.382 124.05-84.382 203.38 0 79.357 32.289 151.28 84.385 203.4 52.13 52.116 124.05 84.384 203.4 84.384 79.342 0 151.27-32.268 203.38-84.384 52.117-52.123 84.384-124.04 84.384-203.4 0-79.334-32.267-151.26-84.384-203.38-52.11-52.115-124.04-84.37-203.38-84.37-79.349 0-151.27 32.255-203.4 84.37zm497.41 203.38c0 162.15-131.88 294.02-294.02 294.03-162.13-0.01-294.02-131.88-294.02-294.03 0.005-162.12 131.89-294 294.03-294.01 162.13 0.007 294.02 131.89 294.02 294.01"/><path id="path4326" d="m92.292 182.9c-54.683 54.68-88.544 130.16-88.544 213.4 0 83.258 33.86 158.72 88.544 213.41 54.677 54.684 130.15 88.537 213.41 88.537 83.256 0 158.72-33.853 213.4-88.537 54.678-54.691 88.537-130.15 88.544-213.41-0.007-83.242-33.866-158.72-88.544-213.4-54.684-54.677-130.15-88.536-213.4-88.536-83.256 0-158.73 33.859-213.41 88.536zm519.1 213.4c0 168.57-137.13 305.69-305.69 305.7-168.57-0.01-305.7-137.13-305.7-305.7 0-168.56 137.13-305.68 305.7-305.69 168.56 0.01 305.69 137.13 305.69 305.69"/></g></g></g></g><g id="g4328"><g id="g4330" fill="#275d38" clip-path="url(#clipPath4332)"><g id="g4336" clip-path="url(#clipPath4338)" fill="#275d38"><path id="path4342" d="m448.78 427v-16.618h-29.833v16.618h29.833zm-70.984-0.9822v-14.647c0-6.0114 1.5715-7.5895 6.8925-7.5895h63.692c5.4192 0 6.9993 1.5781 6.9993 7.5895v14.647c0 5.9982-1.5801 7.5763-6.9993 7.5763h-29.144c-5.3125 0-6.8991-1.5781-6.8991-7.5763v-15.635h-27.961v16.618h14.488v6.5941h-14.176c-5.321 0-6.8925-1.5781-6.8925-7.5763"/><path id="path4344" d="m384.98 455.99v-6.6083h63.175v12.798h-6.5677v-6.1899h-56.607"/><path id="path4346" d="m384.98 343.07v-6.6008h63.175v12.79h-6.5677v-6.1889h-56.607"/><path id="path4348" d="m404.47 386.15 39.446-16.26h-39.446v16.26zm-26.675-16.26v-6.595h20.094v-6.2031h6.5808v6.2031h50.923v8.89l-50.923 21.109-0.9954 0.4184h-5.5854v-23.823h-20.094"/><path id="path4350" d="m556.76 353.06-11.756 6.5006-1.4865-8.704 13.242 2.2034"/><path id="path4352" d="m280.38 176.78c2.4744-0.2853 4.9489-0.5308 7.4507-0.7433l-4.8629-49.834c-2.4943 0.2115-4.982 0.4637-7.464 0.7357l4.8762 49.841zm-14.403-32.002 4.9102 33.288c1.6452-0.2512 3.2961-0.5034 4.9489-0.7291l-4.9102-33.29-4.9489 0.731zm-76.197 6.5337 20.724 45.576c2.2487-1.0814 4.5248-2.1108 6.8132-3.1185l-20.725-45.575c-2.2883 1.0077-4.5701 2.0494-6.8122 3.1176zm-3.2442 19.902 15.458 29.985c1.4582-0.7829 2.9316-1.5451 4.4106-2.3016l-15.45-29.992-4.4181 2.3082zm-73.71 52.72 9.7655 8.9155 5.4986 18.735 3.9478-4.3388-3.8675-12.996 13.268 2.6993 3.9015-4.2718-19.126-3.8013-9.7646-8.9222-3.6229 3.9799zm-23.432 30.45 20.592 13.838-4.8289 7.192 4.2396 2.8522 12.67-18.827-4.2452-2.8531-4.8432 7.1787-20.578-13.839-3.0052 4.4578zm-20.671 37.748 4.2849 2.057 2.3422-4.8564 18.409 8.8041-2.3214 4.862 4.2849 2.0561 6.9729-14.568-4.2859-2.057-2.3214 4.8564-18.41-8.8164 2.3224-4.8554-4.3048-2.0447-6.9728 14.562zm-3.8741 22.278-4.5579 2.5c-0.77634 0.4316-1.2873 1.0814-1.5253 1.8907l-3.469 12.02c-0.24556 0.8283-0.16622 1.6509 0.27861 2.4206l2.601 4.7232 4.4842-2.4348-2.056-3.7211c-0.11334-0.2257-0.14639-0.4241-0.08028-0.6829l2.8324-9.7787c0.06611-0.2654 0.20589-0.4052 0.425-0.5384l2.1694-1.1937c0.22478-0.1257 0.45805-0.1389 0.68378-0.0926l2.7521 0.816c0.43161 0.1124 0.70361 0.6101 0.62427 1.0606l-2.4083 16.069c-0.26539 1.7444 0.86983 3.4822 2.5075 3.9468l5.6516 1.632c0.82355 0.2456 1.6396 0.1521 2.4149-0.2729l4.5513-2.5207c0.78955-0.4317 1.3071-1.0673 1.5319-1.8899l3.4765-12.021c0.23233-0.816 0.153-1.6452-0.27106-2.4215l-2.6152-4.7298-4.4833 2.448 2.056 3.7211c0.12561 0.2257 0.15867 0.4241 0.08689 0.6828l-2.8399 9.7864c-0.07272 0.2455-0.19928 0.3976-0.43161 0.5166l-2.1694 1.2079c-0.21817 0.1124-0.45806 0.1323-0.68284 0.0728l-2.754-0.7962c-0.43066-0.1256-0.7225-0.5705-0.63561-1.0219l2.4272-16.12c0.26633-1.7387-0.86795-3.4633-2.5141-3.9478l-5.6516-1.6244c-0.81695-0.2399-1.6188-0.1464-2.4083 0.2852zm-15.928 49.488 10.488 9.8977c0.25122 0.1993 0.35794 0.4921 0.32488 0.7972l-0.32488 3.264-11.741-1.1419-0.53078 5.3607 29.785 2.8994 1.6197-16.605c0.09256-0.8557-0.14639-1.6046-0.66961-2.2355l-2.6747-3.2309c-0.55722-0.6829-1.24-1.0606-2.1354-1.1541l-5.898-0.5837c-0.88872-0.0727-1.6311 0.1587-2.3148 0.7225l-3.2376 2.6605c-0.64317 0.5251-1.0219 1.2145-1.1012 2.057l-0.10578 1.0748-10.84-10.336-0.64317 6.5535zm256.78 244.4c116.89 0 211.99-95.099 211.99-212 0-116.89-95.098-211.98-211.99-211.98-116.9 0-212 95.09-212 211.98 0 116.9 95.098 212 212 212zm-233.95-203.33l1.207 14.621-7.2505 0.5969-1.2004-14.621-5.0953 0.425 1.1947 14.62-7.2779 0.5969-1.2146-14.614-5.0877 0.4184 1.6386 19.982 29.826-2.4612-1.6443-19.987-5.0953 0.4241zm-17.388 52.74 1.5989 6.2088 31.372 1.9711-1.3723-5.4004-25.17-1.1871 21.476-13.234-1.3468-5.254-26.557 16.896zm33.549 23.338 2.1156 4.9489-18.741 8.0599-2.1363-4.9489-4.3709 1.8709 6.3948 14.848 4.3586-1.8776-2.1231-4.9489 18.761-8.0542 2.1231 4.9432 4.3586-1.8775-6.3693-14.841-4.3718 1.8775zm-6.3882 44.859 4.1064 6.4289 24.85-4.2-19.53 12.511 2.839 4.4256 25.189-16.127-4.1131-6.4288-24.857 4.1867 19.53-12.505-2.8257-4.4115-25.189 16.121zm30.184 34.729-0.204 5.1945c-0.0482 0.8887 0.237 1.665 0.815 2.2884l6.1106 6.6338c0.5827 0.6176 1.326 0.968 2.2147 1.0077l5.1945 0.2002c0.8953 0.0453 1.665-0.2399 2.295-0.8103l16.95-15.635-3.6484-3.9601-16.293 15.019c-0.1596 0.153-0.3985 0.2389-0.6507 0.2314l-2.4678-0.0982c-0.2522-0.0208-0.4505-0.0869-0.6224-0.2853l-4.5183-4.9101c-0.1936-0.1984-0.2531-0.3844-0.2323-0.6432l0.0992-2.4744c0.007-0.2456 0.1067-0.4638 0.2729-0.63l16.293-15.006-3.6559-3.961-16.943 15.617c-0.63 0.5827-0.9757 1.3392-1.0087 2.2222zm74.832 60.92 4.4181 2.2884 15.516-30.118c-1.479-0.7489-2.9457-1.5121-4.4106-2.3016l-15.524 30.132zm10.116 22.874 20.732-45.576c-2.3026-1.002-4.5645-2.0296-6.8198-3.1044l-20.739 45.576c2.2563 1.0606 4.5381 2.1023 6.8264 3.1044zm74.274 4.2717 4.9366-33.442c-1.6594-0.2257-3.3046-0.4581-4.9432-0.7235l-4.9423 33.448 4.9489 0.7168zm12.06 17.687 4.8564-49.828c-2.4877-0.2059-4.9754-0.4581-7.4564-0.7367l-4.8686 49.835c2.4801 0.2852 4.9678 0.5232 7.4686 0.73zm88.782-7.2042-11.51-48.727c-2.4206 0.6158-4.8422 1.1796-7.2968 1.7113l11.529 48.733c2.4291-0.5317 4.8572-1.1021 7.2778-1.7179zm-145.54-56.69c-1.547-0.5969-3.0921-1.2136-4.6438-1.8577l-12.486 31.473 4.6439 1.8237 12.486-31.439zm66.193 14.375-1.6452 33.774 4.9753 0.2455 1.6584-33.78c-1.6716-0.0671-3.3301-0.1464-4.9885-0.2399zm57.332 30.431 4.9017-0.8887-6.1634-33.304c-1.6311 0.3201-3.264 0.6186-4.9083 0.9095l6.17 33.283zm29.11-6.8736-9.3878-32.553c-1.5923 0.4854-3.1969 0.9425-4.7959 1.3874l9.3869 32.552 4.7968-1.3864zm87.469-38.337-15.06-18.317c-0.1521-0.186-0.2314-0.4316-0.1984-0.697l0.2456-2.6463c0.0264-0.272 0.1124-0.4581 0.3381-0.6432l5.5326-4.5512c0.2191-0.1795 0.425-0.2258 0.696-0.2059l2.6416 0.2654c0.2654 0.0264 0.4968 0.153 0.6423 0.3315l15.06 18.33 4.4577-3.6682-15.669-19.06c-0.5771-0.7036-1.3666-1.1211-2.3092-1.2136l-5.5458-0.5374c-0.9359-0.0935-1.7916 0.1586-2.481 0.7433l-7.4564 6.1228c-0.7169 0.5903-1.1277 1.36-1.2212 2.3025l-0.5374 5.5458c-0.0991 0.9426 0.1662 1.7841 0.7442 2.5009l15.675 19.059 4.4455-3.6616zm47.366-47.725-4.199-3.5029-5.9368 7.0984-20.374-17.036-3.688 4.4314 20.366 17.023-5.951 7.1051 4.199 3.5152 15.583-18.634zm20.214-31.392-21.925-26.138-2.9183 5.0821 5.4523 6.6064-6.3552 11.079-8.4575-1.36-2.8739 5.0017 33.695 5.6393 3.383-5.9113zm18.223-40.453-12.618-4.0611 3.9345-12.205 12.618 4.0583 1.7576-5.4854-30.483-9.8118-1.7576 5.4797 12.664 4.08-3.9412 12.207-12.65-4.0876-1.7784 5.5005 30.484 9.8043 1.7699-5.4788zm14.317-73.736-25.64-8.3593 25.904-7.5829 0.1011-5.8178-32.19 9.9384-0.1256 6.8727 31.85 10.9 0.0992-5.9509zm-3.0251-53.504-1.1541-6.7131-33.554-6.1899 0.9945 5.7715 8.4112 1.6263 2.1562 12.598-7.3959 4.3313 0.9812 5.6846 29.561-17.109zm-10.714-43.612-2.0504-5.3805-24.825 9.4406-5.5845-14.695-5.1085 1.9578 7.6226 20.061 29.946-11.384zm-19.233-42.928-2.9844-4.9224-22.702 13.744-8.1467-13.44-4.6769 2.8333 11.126 18.363 27.384-16.578zm-26.708-38.974-14.324-15.969-4.079 3.6559 10.482 11.682-5.7979 5.1945-10.469-11.689-4.08 3.6493 10.482 11.703-5.8244 5.2143-10.482-11.689-4.08 3.656 14.329 15.981 23.842-21.388zm-31.034-31.778-4.9753-3.8269-13.519 5.2729 1.6981-14.394-4.9158-3.7825-2.3422 20.738-8.6379 11.219 4.5579 3.5153 8.6445-11.212 19.49-7.5291zm-101.68-47.08-9.34 32.4c1.598 0.4505 3.197 0.9152 4.7836 1.3931l9.3538-32.408-4.7968-1.3855zm-76.669 24.558-1.6452-33.634-4.9753 0.2446 1.6254 33.628c1.6584-0.1001 3.3159-0.1851 4.9951-0.2389zm-83.654-16.677-4.6439 1.8303 12.452 31.333c1.5262-0.6309 3.0789-1.2599 4.6306-1.8577l-12.438-31.306zm134.78 20.691 6.137-33.157-4.9017-0.9086-6.1426 33.15c1.631 0.2852 3.2829 0.5827 4.9073 0.9152zm16.015-47.811-11.53 48.746c2.448 0.5374 4.8969 1.1012 7.2911 1.718l11.516-48.74c-2.4149-0.6035-4.8431-1.1805-7.2778-1.7245zm221.21 264.61c0 154.42-125.63 280.06-280.04 280.06-154.42 0-280.04-125.64-280.04-280.06 0-154.41 125.62-280.04 280.04-280.04 154.41 0 280.04 125.63 280.04 280.04"/><path id="path4354" d="m67.541 366.61 4.1131 0.4042c0.26444 0.0208 0.43066 0.1256 0.59594 0.3249l0.88306 1.0748c0.16622 0.1993 0.23233 0.3853 0.20588 0.6498l-0.969 10.051-7.8606-0.7622 0.98128-10.051c0.02078-0.272 0.12561-0.4448 0.32583-0.6035l1.0804-0.8897c0.20022-0.152 0.37778-0.2323 0.64411-0.1983"/><path id="path4356" d="m517.99 512.79 8.8107 10.15-13.196-2.4877 4.3851-7.6623"/><path id="path4358" d="m171.99 262.62c-34.212 34.218-55.367 81.479-55.367 133.68 0 52.211 21.155 99.464 55.367 133.69 34.224 34.218 81.485 55.36 133.71 55.38 52.202-0.0208 99.463-21.162 133.68-55.38 34.212-34.225 55.375-81.478 55.375-133.69 0-52.201-21.163-99.462-55.375-133.68-34.217-34.211-81.478-55.374-133.68-55.374-52.223 0-99.484 21.163-133.71 55.374zm326.51 133.68c0 106.48-86.309 192.82-192.8 192.82-106.52 0-192.82-86.336-192.83-192.82 0.008-106.47 86.309-192.8 192.83-192.8 106.49 0 192.8 86.328 192.8 192.8"/><path id="path4360" d="m70.626 179.28v-4.5182h-13.646v-1.6462h13.646v-4.7562h1.6452v10.921h-1.6452"/><path id="path4362" d="m59.832 159.61 12.438 3.9346v2.6265h-15.292v-1.6311h12.982l-12.982-4.1074v-1.632l12.982-4.0989h-12.982v-1.6386h15.292v2.6265l-12.438 3.9204"/></g></g></g></g></g></svg>
